<?xml version="1.0" encoding="UTF-8" standalone="no"?><!DOCTYPE svg PUBLIC "-//W3C//DTD SVG 1.1//EN" "http://www.w3.org/Graphics/SVG/1.1/DTD/svg11.dtd"><!-- Generated by graphviz version 2.40.1 (20161225.0304)
 --><!-- Title: G Pages: 1 --><svg xmlns="http://www.w3.org/2000/svg" xmlns:xlink="http://www.w3.org/1999/xlink" width="1711pt" height="836pt" viewBox="0.00 0.00 1710.71 836.00">
<g id="graph0" class="graph" transform="scale(1 1) rotate(0) translate(4 832)">
<title>G</title>
<polygon fill="#ffffff" stroke="transparent" points="-4,4 -4,-832 1706.709,-832 1706.709,4 -4,4"/>
<!-- Add -->
<g id="node1" class="node">
<title>Add</title>
<ellipse fill="none" stroke="#000000" cx="1012.709" cy="-810" rx="27.8306" ry="18"/>
<text text-anchor="middle" x="1012.709" y="-805.8" font-family="Times,serif" font-size="14.00" fill="#000000">Add</text>
</g>
<!-- AddSemigroup -->
<g id="node2" class="node">
<title>AddSemigroup</title>
<ellipse fill="none" stroke="#000000" cx="1115.709" cy="-738" rx="70.0886" ry="18"/>
<text text-anchor="middle" x="1115.709" y="-733.8" font-family="Times,serif" font-size="14.00" fill="#000000">AddSemigroup</text>
</g>
<!-- Add&#45;&gt;AddSemigroup -->
<g id="edge1" class="edge">
<title>Add-&gt;AddSemigroup</title>
<path fill="none" stroke="#000000" d="M1031.6008,-796.7941C1045.943,-786.7685 1066.017,-772.7362 1082.9569,-760.8947"/>
<polygon fill="#000000" stroke="#000000" points="1085.292,-763.5328 1091.4828,-754.9348 1081.2814,-757.7955 1085.292,-763.5328"/>
</g>
<!-- AddZeroClass -->
<g id="node6" class="node">
<title>AddZeroClass</title>
<ellipse fill="none" stroke="#000000" cx="960.709" cy="-738" rx="66.6325" ry="18"/>
<text text-anchor="middle" x="960.709" y="-733.8" font-family="Times,serif" font-size="14.00" fill="#000000">AddZeroClass</text>
</g>
<!-- Add&#45;&gt;AddZeroClass -->
<g id="edge4" class="edge">
<title>Add-&gt;AddZeroClass</title>
<path fill="none" stroke="#000000" d="M1000.9094,-793.6621C994.6054,-784.9336 986.6949,-773.9805 979.5624,-764.1047"/>
<polygon fill="#000000" stroke="#000000" points="982.2469,-761.8438 973.5546,-755.7862 976.5721,-765.9422 982.2469,-761.8438"/>
</g>
<!-- AddCommMagma -->
<g id="node18" class="node">
<title>AddCommMagma</title>
<ellipse fill="none" stroke="#000000" cx="1287.709" cy="-738" rx="83.4118" ry="18"/>
<text text-anchor="middle" x="1287.709" y="-733.8" font-family="Times,serif" font-size="14.00" fill="#000000">AddCommMagma</text>
</g>
<!-- Add&#45;&gt;AddCommMagma -->
<g id="edge18" class="edge">
<title>Add-&gt;AddCommMagma</title>
<path fill="none" stroke="#000000" d="M1038.5803,-803.2264C1080.7959,-792.1736 1165.6841,-769.9483 1224.5615,-754.5332"/>
<polygon fill="#000000" stroke="#000000" points="1225.718,-757.8484 1234.5054,-751.9297 1223.945,-751.0767 1225.718,-757.8484"/>
</g>
<!-- Distrib -->
<g id="node25" class="node">
<title>Distrib</title>
<ellipse fill="none" stroke="#000000" cx="865.709" cy="-594" rx="37.7159" ry="18"/>
<text text-anchor="middle" x="865.709" y="-589.8" font-family="Times,serif" font-size="14.00" fill="#000000">Distrib</text>
</g>
<!-- Add&#45;&gt;Distrib -->
<g id="edge31" class="edge">
<title>Add-&gt;Distrib</title>
<path fill="none" stroke="#000000" d="M987.3259,-802.6226C953.8098,-792.3482 897.5274,-773.0676 884.709,-756 855.4274,-717.0116 856.9402,-657.1821 861.0693,-622.1856"/>
<polygon fill="#000000" stroke="#000000" points="864.552,-622.5471 862.4036,-612.1724 857.6134,-621.6225 864.552,-622.5471"/>
</g>
<!-- AddMonoid -->
<g id="node7" class="node">
<title>AddMonoid</title>
<ellipse fill="none" stroke="#000000" cx="1114.709" cy="-666" rx="58.4939" ry="18"/>
<text text-anchor="middle" x="1114.709" y="-661.8" font-family="Times,serif" font-size="14.00" fill="#000000">AddMonoid</text>
</g>
<!-- AddSemigroup&#45;&gt;AddMonoid -->
<g id="edge5" class="edge">
<title>AddSemigroup-&gt;AddMonoid</title>
<path fill="none" stroke="#000000" d="M1115.4566,-719.8314C1115.3497,-712.131 1115.2225,-702.9743 1115.1036,-694.4166"/>
<polygon fill="#000000" stroke="#000000" points="1118.6033,-694.3637 1114.9647,-684.4133 1111.604,-694.4609 1118.6033,-694.3637"/>
</g>
<!-- AddCommSemigroup -->
<g id="node20" class="node">
<title>AddCommSemigroup</title>
<ellipse fill="none" stroke="#000000" cx="1287.709" cy="-666" rx="96.1748" ry="18"/>
<text text-anchor="middle" x="1287.709" y="-661.8" font-family="Times,serif" font-size="14.00" fill="#000000">AddCommSemigroup</text>
</g>
<!-- AddSemigroup&#45;&gt;AddCommSemigroup -->
<g id="edge20" class="edge">
<title>AddSemigroup-&gt;AddCommSemigroup</title>
<path fill="none" stroke="#000000" d="M1152.6073,-722.5542C1177.7724,-712.02 1211.3732,-697.9545 1238.7694,-686.4863"/>
<polygon fill="#000000" stroke="#000000" points="1240.3041,-689.6382 1248.177,-682.5483 1237.6011,-683.1811 1240.3041,-689.6382"/>
</g>
<!-- Mul -->
<g id="node3" class="node">
<title>Mul</title>
<ellipse fill="none" stroke="#000000" cx="561.709" cy="-666" rx="27.2661" ry="18"/>
<text text-anchor="middle" x="561.709" y="-661.8" font-family="Times,serif" font-size="14.00" fill="#000000">Mul</text>
</g>
<!-- Semigroup -->
<g id="node4" class="node">
<title>Semigroup</title>
<ellipse fill="none" stroke="#000000" cx="396.709" cy="-594" rx="53.3322" ry="18"/>
<text text-anchor="middle" x="396.709" y="-589.8" font-family="Times,serif" font-size="14.00" fill="#000000">Semigroup</text>
</g>
<!-- Mul&#45;&gt;Semigroup -->
<g id="edge2" class="edge">
<title>Mul-&gt;Semigroup</title>
<path fill="none" stroke="#000000" d="M538.7664,-655.9887C513.0067,-644.7481 470.6595,-626.2693 438.89,-612.4062"/>
<polygon fill="#000000" stroke="#000000" points="439.9653,-609.0568 429.4001,-608.2652 437.1657,-615.4726 439.9653,-609.0568"/>
</g>
<!-- MulOneClass -->
<g id="node9" class="node">
<title>MulOneClass</title>
<ellipse fill="none" stroke="#000000" cx="561.709" cy="-594" rx="64.2823" ry="18"/>
<text text-anchor="middle" x="561.709" y="-589.8" font-family="Times,serif" font-size="14.00" fill="#000000">MulOneClass</text>
</g>
<!-- Mul&#45;&gt;MulOneClass -->
<g id="edge8" class="edge">
<title>Mul-&gt;MulOneClass</title>
<path fill="none" stroke="#000000" d="M561.709,-647.8314C561.709,-640.131 561.709,-630.9743 561.709,-622.4166"/>
<polygon fill="#000000" stroke="#000000" points="565.2091,-622.4132 561.709,-612.4133 558.2091,-622.4133 565.2091,-622.4132"/>
</g>
<!-- CommMagma -->
<g id="node19" class="node">
<title>CommMagma</title>
<ellipse fill="none" stroke="#000000" cx="156.709" cy="-594" rx="66.6556" ry="18"/>
<text text-anchor="middle" x="156.709" y="-589.8" font-family="Times,serif" font-size="14.00" fill="#000000">CommMagma</text>
</g>
<!-- Mul&#45;&gt;CommMagma -->
<g id="edge19" class="edge">
<title>Mul-&gt;CommMagma</title>
<path fill="none" stroke="#000000" d="M535.4478,-661.3314C472.8514,-650.2031 313.3238,-621.8426 222.5337,-605.7022"/>
<polygon fill="#000000" stroke="#000000" points="223.08,-602.2445 212.6217,-603.94 221.8547,-609.1364 223.08,-602.2445"/>
</g>
<!-- Mul&#45;&gt;Distrib -->
<g id="edge30" class="edge">
<title>Mul-&gt;Distrib</title>
<path fill="none" stroke="#000000" d="M587.3109,-659.3742C600.8007,-655.9172 617.6324,-651.6578 632.709,-648 698.3112,-632.084 774.5573,-614.6056 821.4725,-603.9677"/>
<polygon fill="#000000" stroke="#000000" points="822.3302,-607.3622 831.3102,-601.7399 820.7841,-600.5351 822.3302,-607.3622"/>
</g>
<!-- MulZeroClass -->
<g id="node26" class="node">
<title>MulZeroClass</title>
<ellipse fill="none" stroke="#000000" cx="709.709" cy="-594" rx="66.0685" ry="18"/>
<text text-anchor="middle" x="709.709" y="-589.8" font-family="Times,serif" font-size="14.00" fill="#000000">MulZeroClass</text>
</g>
<!-- Mul&#45;&gt;MulZeroClass -->
<g id="edge32" class="edge">
<title>Mul-&gt;MulZeroClass</title>
<path fill="none" stroke="#000000" d="M583.8661,-655.2209C606.0112,-644.4476 640.6044,-627.6185 667.9211,-614.3292"/>
<polygon fill="#000000" stroke="#000000" points="669.7864,-617.314 677.2476,-609.792 666.7241,-611.0194 669.7864,-617.314"/>
</g>
<!-- Monoid -->
<g id="node10" class="node">
<title>Monoid</title>
<ellipse fill="none" stroke="#000000" cx="363.709" cy="-522" rx="41.7366" ry="18"/>
<text text-anchor="middle" x="363.709" y="-517.8" font-family="Times,serif" font-size="14.00" fill="#000000">Monoid</text>
</g>
<!-- Semigroup&#45;&gt;Monoid -->
<g id="edge9" class="edge">
<title>Semigroup-&gt;Monoid</title>
<path fill="none" stroke="#000000" d="M388.5517,-576.2022C384.8233,-568.0675 380.3236,-558.2501 376.184,-549.2181"/>
<polygon fill="#000000" stroke="#000000" points="379.2351,-547.4749 371.8868,-539.8425 372.8717,-550.3915 379.2351,-547.4749"/>
</g>
<!-- CommSemigroup -->
<g id="node21" class="node">
<title>CommSemigroup</title>
<ellipse fill="none" stroke="#000000" cx="79.709" cy="-522" rx="79.9185" ry="18"/>
<text text-anchor="middle" x="79.709" y="-517.8" font-family="Times,serif" font-size="14.00" fill="#000000">CommSemigroup</text>
</g>
<!-- Semigroup&#45;&gt;CommSemigroup -->
<g id="edge22" class="edge">
<title>Semigroup-&gt;CommSemigroup</title>
<path fill="none" stroke="#000000" d="M352.2977,-583.9129C298.7094,-571.7414 208.1075,-551.1631 146.1811,-537.0978"/>
<polygon fill="#000000" stroke="#000000" points="146.6436,-533.6137 136.1167,-534.8119 145.0931,-540.4399 146.6436,-533.6137"/>
</g>
<!-- SemigroupWithZero -->
<g id="node28" class="node">
<title>SemigroupWithZero</title>
<ellipse fill="none" stroke="#000000" cx="514.709" cy="-522" rx="90.9129" ry="18"/>
<text text-anchor="middle" x="514.709" y="-517.8" font-family="Times,serif" font-size="14.00" fill="#000000">SemigroupWithZero</text>
</g>
<!-- Semigroup&#45;&gt;SemigroupWithZero -->
<g id="edge37" class="edge">
<title>Semigroup-&gt;SemigroupWithZero</title>
<path fill="none" stroke="#000000" d="M422.6046,-578.1993C438.6652,-568.3996 459.5646,-555.6474 477.3947,-544.7681"/>
<polygon fill="#000000" stroke="#000000" points="479.6836,-547.4716 486.397,-539.2751 476.0375,-541.4961 479.6836,-547.4716"/>
</g>
<!-- Zero -->
<g id="node5" class="node">
<title>Zero</title>
<ellipse fill="none" stroke="#000000" cx="908.709" cy="-810" rx="29.0337" ry="18"/>
<text text-anchor="middle" x="908.709" y="-805.8" font-family="Times,serif" font-size="14.00" fill="#000000">Zero</text>
</g>
<!-- Zero&#45;&gt;AddZeroClass -->
<g id="edge3" class="edge">
<title>Zero-&gt;AddZeroClass</title>
<path fill="none" stroke="#000000" d="M920.7695,-793.3008C927.0349,-784.6256 934.8336,-773.8275 941.8725,-764.0813"/>
<polygon fill="#000000" stroke="#000000" points="944.7874,-766.0232 947.8049,-755.8671 939.1126,-761.9247 944.7874,-766.0232"/>
</g>
<!-- Zero&#45;&gt;MulZeroClass -->
<g id="edge33" class="edge">
<title>Zero-&gt;MulZeroClass</title>
<path fill="none" stroke="#000000" d="M894.076,-794.117C859.8673,-756.986 774.4313,-664.2513 732.9866,-619.2661"/>
<polygon fill="#000000" stroke="#000000" points="735.3676,-616.685 726.0177,-611.702 730.2194,-621.4281 735.3676,-616.685"/>
</g>
<!-- AddZeroClass&#45;&gt;AddMonoid -->
<g id="edge6" class="edge">
<title>AddZeroClass-&gt;AddMonoid</title>
<path fill="none" stroke="#000000" d="M994.1247,-722.3771C1017.3432,-711.5216 1048.4454,-696.9804 1073.2466,-685.385"/>
<polygon fill="#000000" stroke="#000000" points="1074.8373,-688.505 1082.4138,-681.099 1071.8726,-682.1638 1074.8373,-688.505"/>
</g>
<!-- SubNegMonoid -->
<g id="node11" class="node">
<title>SubNegMonoid</title>
<ellipse fill="none" stroke="#000000" cx="1485.709" cy="-522" rx="72.9605" ry="18"/>
<text text-anchor="middle" x="1485.709" y="-517.8" font-family="Times,serif" font-size="14.00" fill="#000000">SubNegMonoid</text>
</g>
<!-- AddMonoid&#45;&gt;SubNegMonoid -->
<g id="edge11" class="edge">
<title>AddMonoid-&gt;SubNegMonoid</title>
<path fill="none" stroke="#000000" d="M1158.1136,-653.9584C1166.258,-651.8561 1174.722,-649.7766 1182.709,-648 1270.4448,-628.4847 1300.6274,-650.7839 1381.709,-612 1414.1793,-596.4684 1444.4699,-568.0224 1463.8895,-547.2562"/>
<polygon fill="#000000" stroke="#000000" points="1466.6181,-549.4587 1470.7818,-539.7163 1461.4515,-544.7357 1466.6181,-549.4587"/>
</g>
<!-- AddCommMonoid -->
<g id="node23" class="node">
<title>AddCommMonoid</title>
<ellipse fill="none" stroke="#000000" cx="1287.709" cy="-594" rx="84.5788" ry="18"/>
<text text-anchor="middle" x="1287.709" y="-589.8" font-family="Times,serif" font-size="14.00" fill="#000000">AddCommMonoid</text>
</g>
<!-- AddMonoid&#45;&gt;AddCommMonoid -->
<g id="edge26" class="edge">
<title>AddMonoid-&gt;AddCommMonoid</title>
<path fill="none" stroke="#000000" d="M1149.7181,-651.4297C1175.62,-640.6497 1211.2068,-625.8391 1239.7532,-613.9585"/>
<polygon fill="#000000" stroke="#000000" points="1241.2525,-617.1256 1249.1401,-610.0518 1238.5629,-610.6629 1241.2525,-617.1256"/>
</g>
<!-- AddMonoidWithOne -->
<g id="node30" class="node">
<title>AddMonoidWithOne</title>
<ellipse fill="none" stroke="#000000" cx="1091.709" cy="-594" rx="93.7881" ry="18"/>
<text text-anchor="middle" x="1091.709" y="-589.8" font-family="Times,serif" font-size="14.00" fill="#000000">AddMonoidWithOne</text>
</g>
<!-- AddMonoid&#45;&gt;AddMonoidWithOne -->
<g id="edge41" class="edge">
<title>AddMonoid-&gt;AddMonoidWithOne</title>
<path fill="none" stroke="#000000" d="M1108.9051,-647.8314C1106.4182,-640.0463 1103.4559,-630.7729 1100.6965,-622.1347"/>
<polygon fill="#000000" stroke="#000000" points="1103.968,-620.874 1097.591,-612.4133 1097.3,-623.0041 1103.968,-620.874"/>
</g>
<!-- One -->
<g id="node8" class="node">
<title>One</title>
<ellipse fill="none" stroke="#000000" cx="668.709" cy="-666" rx="27.2467" ry="18"/>
<text text-anchor="middle" x="668.709" y="-661.8" font-family="Times,serif" font-size="14.00" fill="#000000">One</text>
</g>
<!-- One&#45;&gt;MulOneClass -->
<g id="edge7" class="edge">
<title>One-&gt;MulOneClass</title>
<path fill="none" stroke="#000000" d="M649.5795,-653.1278C634.4953,-642.9777 613.0896,-628.5739 595.1823,-616.5241"/>
<polygon fill="#000000" stroke="#000000" points="596.9661,-613.5058 586.7155,-610.8268 593.0581,-619.3134 596.9661,-613.5058"/>
</g>
<!-- One&#45;&gt;AddMonoidWithOne -->
<g id="edge44" class="edge">
<title>One-&gt;AddMonoidWithOne</title>
<path fill="none" stroke="#000000" d="M695.1695,-661.4961C757.2708,-650.9256 914.4089,-624.1787 1011.1922,-607.705"/>
<polygon fill="#000000" stroke="#000000" points="1011.9629,-611.1242 1021.2338,-605.9958 1010.7883,-604.2235 1011.9629,-611.1242"/>
</g>
<!-- MulOneClass&#45;&gt;Monoid -->
<g id="edge10" class="edge">
<title>MulOneClass-&gt;Monoid</title>
<path fill="none" stroke="#000000" d="M522.1166,-579.6028C488.3233,-567.3143 439.8752,-549.6968 405.4727,-537.1868"/>
<polygon fill="#000000" stroke="#000000" points="406.3171,-533.7697 395.7231,-533.6415 403.9249,-540.3483 406.3171,-533.7697"/>
</g>
<!-- MulZeroOneClass -->
<g id="node33" class="node">
<title>MulZeroOneClass</title>
<ellipse fill="none" stroke="#000000" cx="705.709" cy="-522" rx="82.2411" ry="18"/>
<text text-anchor="middle" x="705.709" y="-517.8" font-family="Times,serif" font-size="14.00" fill="#000000">MulZeroOneClass</text>
</g>
<!-- MulOneClass&#45;&gt;MulZeroOneClass -->
<g id="edge47" class="edge">
<title>MulOneClass-&gt;MulZeroOneClass</title>
<path fill="none" stroke="#000000" d="M593.3104,-578.1993C613.9757,-567.8666 641.2058,-554.2516 663.6882,-543.0104"/>
<polygon fill="#000000" stroke="#000000" points="665.3019,-546.1167 672.6809,-538.514 662.1714,-539.8557 665.3019,-546.1167"/>
</g>
<!-- DivInvMonoid -->
<g id="node14" class="node">
<title>DivInvMonoid</title>
<ellipse fill="none" stroke="#000000" cx="286.709" cy="-450" rx="68.9467" ry="18"/>
<text text-anchor="middle" x="286.709" y="-445.8" font-family="Times,serif" font-size="14.00" fill="#000000">DivInvMonoid</text>
</g>
<!-- Monoid&#45;&gt;DivInvMonoid -->
<g id="edge14" class="edge">
<title>Monoid-&gt;DivInvMonoid</title>
<path fill="none" stroke="#000000" d="M346.2365,-505.6621C336.3583,-496.4253 323.8159,-484.6974 312.7939,-474.3911"/>
<polygon fill="#000000" stroke="#000000" points="315.1523,-471.8047 305.4576,-467.5312 310.3714,-476.9176 315.1523,-471.8047"/>
</g>
<!-- CommMonoid -->
<g id="node24" class="node">
<title>CommMonoid</title>
<ellipse fill="none" stroke="#000000" cx="503.709" cy="-378" rx="67.8223" ry="18"/>
<text text-anchor="middle" x="503.709" y="-373.8" font-family="Times,serif" font-size="14.00" fill="#000000">CommMonoid</text>
</g>
<!-- Monoid&#45;&gt;CommMonoid -->
<g id="edge28" class="edge">
<title>Monoid-&gt;CommMonoid</title>
<path fill="none" stroke="#000000" d="M380.0427,-505.1995C404.5415,-480.0008 450.958,-432.2581 479.4317,-402.9709"/>
<polygon fill="#000000" stroke="#000000" points="482.1455,-405.2006 486.6068,-395.5908 477.1265,-400.321 482.1455,-405.2006"/>
</g>
<!-- MonoidWithZero -->
<g id="node35" class="node">
<title>MonoidWithZero</title>
<ellipse fill="none" stroke="#000000" cx="547.709" cy="-450" rx="79.3174" ry="18"/>
<text text-anchor="middle" x="547.709" y="-445.8" font-family="Times,serif" font-size="14.00" fill="#000000">MonoidWithZero</text>
</g>
<!-- Monoid&#45;&gt;MonoidWithZero -->
<g id="edge52" class="edge">
<title>Monoid-&gt;MonoidWithZero</title>
<path fill="none" stroke="#000000" d="M394.9221,-509.7862C423.1979,-498.7217 465.3399,-482.2314 498.2073,-469.3702"/>
<polygon fill="#000000" stroke="#000000" points="499.6102,-472.5797 507.6472,-465.6763 497.0594,-466.061 499.6102,-472.5797"/>
</g>
<!-- AddGroup -->
<g id="node17" class="node">
<title>AddGroup</title>
<ellipse fill="none" stroke="#000000" cx="1304.709" cy="-450" rx="52.1732" ry="18"/>
<text text-anchor="middle" x="1304.709" y="-445.8" font-family="Times,serif" font-size="14.00" fill="#000000">AddGroup</text>
</g>
<!-- SubNegMonoid&#45;&gt;AddGroup -->
<g id="edge17" class="edge">
<title>SubNegMonoid-&gt;AddGroup</title>
<path fill="none" stroke="#000000" d="M1446.8799,-506.5542C1418.0109,-495.0704 1378.5925,-479.3901 1348.5836,-467.4529"/>
<polygon fill="#000000" stroke="#000000" points="1349.7819,-464.1629 1339.1964,-463.7188 1347.1946,-470.6672 1349.7819,-464.1629"/>
</g>
<!-- Neg -->
<g id="node12" class="node">
<title>Neg</title>
<ellipse fill="none" stroke="#000000" cx="1480.709" cy="-594" rx="27.2467" ry="18"/>
<text text-anchor="middle" x="1480.709" y="-589.8" font-family="Times,serif" font-size="14.00" fill="#000000">Neg</text>
</g>
<!-- Neg&#45;&gt;SubNegMonoid -->
<g id="edge12" class="edge">
<title>Neg-&gt;SubNegMonoid</title>
<path fill="none" stroke="#000000" d="M1481.9707,-575.8314C1482.5054,-568.131 1483.1413,-558.9743 1483.7356,-550.4166"/>
<polygon fill="#000000" stroke="#000000" points="1487.229,-550.6317 1484.4303,-540.4133 1480.2458,-550.1467 1487.229,-550.6317"/>
</g>
<!-- Sub -->
<g id="node13" class="node">
<title>Sub</title>
<ellipse fill="none" stroke="#000000" cx="1552.709" cy="-594" rx="27" ry="18"/>
<text text-anchor="middle" x="1552.709" y="-589.8" font-family="Times,serif" font-size="14.00" fill="#000000">Sub</text>
</g>
<!-- Sub&#45;&gt;SubNegMonoid -->
<g id="edge13" class="edge">
<title>Sub-&gt;SubNegMonoid</title>
<path fill="none" stroke="#000000" d="M1538.171,-578.3771C1529.7063,-569.2807 1518.8332,-557.5962 1509.1829,-547.2257"/>
<polygon fill="#000000" stroke="#000000" points="1511.4763,-544.5525 1502.1017,-539.6161 1506.3518,-549.3211 1511.4763,-544.5525"/>
</g>
<!-- DivisionRing -->
<g id="node39" class="node">
<title>DivisionRing</title>
<ellipse fill="none" stroke="#000000" cx="864.709" cy="-234" rx="63.1615" ry="18"/>
<text text-anchor="middle" x="864.709" y="-229.8" font-family="Times,serif" font-size="14.00" fill="#000000">DivisionRing</text>
</g>
<!-- DivInvMonoid&#45;&gt;DivisionRing -->
<g id="edge64" class="edge">
<title>DivInvMonoid-&gt;DivisionRing</title>
<path fill="none" stroke="#000000" d="M347.8384,-441.5649C407.7263,-432.6484 501.3065,-416.9692 580.709,-396 674.8866,-371.1289 707.2562,-378.9122 787.709,-324 812.4163,-307.1363 833.9078,-280.3763 847.86,-260.4126"/>
<polygon fill="#000000" stroke="#000000" points="850.8171,-262.2882 853.5447,-252.0505 845.0281,-258.3527 850.8171,-262.2882"/>
</g>
<!-- Inv -->
<g id="node15" class="node">
<title>Inv</title>
<ellipse fill="none" stroke="#000000" cx="204.709" cy="-522" rx="27" ry="18"/>
<text text-anchor="middle" x="204.709" y="-517.8" font-family="Times,serif" font-size="14.00" fill="#000000">Inv</text>
</g>
<!-- Inv&#45;&gt;DivInvMonoid -->
<g id="edge15" class="edge">
<title>Inv-&gt;DivInvMonoid</title>
<path fill="none" stroke="#000000" d="M221.3029,-507.4297C232.2317,-497.8337 246.7981,-485.0437 259.4101,-473.9697"/>
<polygon fill="#000000" stroke="#000000" points="261.7552,-476.5684 266.9603,-467.3403 257.1366,-471.3083 261.7552,-476.5684"/>
</g>
<!-- Div -->
<g id="node16" class="node">
<title>Div</title>
<ellipse fill="none" stroke="#000000" cx="276.709" cy="-522" rx="27" ry="18"/>
<text text-anchor="middle" x="276.709" y="-517.8" font-family="Times,serif" font-size="14.00" fill="#000000">Div</text>
</g>
<!-- Div&#45;&gt;DivInvMonoid -->
<g id="edge16" class="edge">
<title>Div-&gt;DivInvMonoid</title>
<path fill="none" stroke="#000000" d="M279.2324,-503.8314C280.3019,-496.131 281.5736,-486.9743 282.7622,-478.4166"/>
<polygon fill="#000000" stroke="#000000" points="286.2425,-478.7997 284.1516,-468.4133 279.3091,-477.8367 286.2425,-478.7997"/>
</g>
<!-- AddCommGroup -->
<g id="node22" class="node">
<title>AddCommGroup</title>
<ellipse fill="none" stroke="#000000" cx="1304.709" cy="-378" rx="78.7589" ry="18"/>
<text text-anchor="middle" x="1304.709" y="-373.8" font-family="Times,serif" font-size="14.00" fill="#000000">AddCommGroup</text>
</g>
<!-- AddGroup&#45;&gt;AddCommGroup -->
<g id="edge24" class="edge">
<title>AddGroup-&gt;AddCommGroup</title>
<path fill="none" stroke="#000000" d="M1304.709,-431.8314C1304.709,-424.131 1304.709,-414.9743 1304.709,-406.4166"/>
<polygon fill="#000000" stroke="#000000" points="1308.2091,-406.4132 1304.709,-396.4133 1301.2091,-406.4133 1308.2091,-406.4132"/>
</g>
<!-- AddGroupWithOne -->
<g id="node31" class="node">
<title>AddGroupWithOne</title>
<ellipse fill="none" stroke="#000000" cx="1120.709" cy="-378" rx="87.9684" ry="18"/>
<text text-anchor="middle" x="1120.709" y="-373.8" font-family="Times,serif" font-size="14.00" fill="#000000">AddGroupWithOne</text>
</g>
<!-- AddGroup&#45;&gt;AddGroupWithOne -->
<g id="edge43" class="edge">
<title>AddGroup-&gt;AddGroupWithOne</title>
<path fill="none" stroke="#000000" d="M1270.1,-436.4574C1242.1746,-425.53 1202.5033,-410.0065 1171.0595,-397.7024"/>
<polygon fill="#000000" stroke="#000000" points="1172.1752,-394.3806 1161.5874,-393.9959 1169.6244,-400.8993 1172.1752,-394.3806"/>
</g>
<!-- AddCommMagma&#45;&gt;AddCommSemigroup -->
<g id="edge21" class="edge">
<title>AddCommMagma-&gt;AddCommSemigroup</title>
<path fill="none" stroke="#000000" d="M1287.709,-719.8314C1287.709,-712.131 1287.709,-702.9743 1287.709,-694.4166"/>
<polygon fill="#000000" stroke="#000000" points="1291.2091,-694.4132 1287.709,-684.4133 1284.2091,-694.4133 1291.2091,-694.4132"/>
</g>
<!-- CommMagma&#45;&gt;CommSemigroup -->
<g id="edge23" class="edge">
<title>CommMagma-&gt;CommSemigroup</title>
<path fill="none" stroke="#000000" d="M138.0694,-576.5708C128.3992,-567.5286 116.4271,-556.3338 105.848,-546.4417"/>
<polygon fill="#000000" stroke="#000000" points="108.1385,-543.7917 98.4438,-539.5182 103.3575,-548.9047 108.1385,-543.7917"/>
</g>
<!-- AddCommSemigroup&#45;&gt;AddCommMonoid -->
<g id="edge27" class="edge">
<title>AddCommSemigroup-&gt;AddCommMonoid</title>
<path fill="none" stroke="#000000" d="M1287.709,-647.8314C1287.709,-640.131 1287.709,-630.9743 1287.709,-622.4166"/>
<polygon fill="#000000" stroke="#000000" points="1291.2091,-622.4132 1287.709,-612.4133 1284.2091,-622.4133 1291.2091,-622.4132"/>
</g>
<!-- CommSemigroup&#45;&gt;CommMonoid -->
<g id="edge29" class="edge">
<title>CommSemigroup-&gt;CommMonoid</title>
<path fill="none" stroke="#000000" d="M99.096,-504.4032C123.0351,-483.6935 165.8624,-449.8685 208.709,-432 279.3799,-402.5277 366.2078,-389.0965 427.3074,-383.0024"/>
<polygon fill="#000000" stroke="#000000" points="427.6433,-386.4864 437.2652,-382.0514 426.9777,-379.5181 427.6433,-386.4864"/>
</g>
<!-- Ring -->
<g id="node37" class="node">
<title>Ring</title>
<ellipse fill="none" stroke="#000000" cx="914.709" cy="-306" rx="29.6358" ry="18"/>
<text text-anchor="middle" x="914.709" y="-301.8" font-family="Times,serif" font-size="14.00" fill="#000000">Ring</text>
</g>
<!-- AddCommGroup&#45;&gt;Ring -->
<g id="edge59" class="edge">
<title>AddCommGroup-&gt;Ring</title>
<path fill="none" stroke="#000000" d="M1247.2449,-365.5808C1237.4116,-363.6076 1227.2816,-361.6696 1217.709,-360 1105.821,-340.4847 1074.9369,-351.378 964.709,-324 959.6346,-322.7397 954.3566,-321.1552 949.2138,-319.4519"/>
<polygon fill="#000000" stroke="#000000" points="950.1745,-316.0801 939.5796,-316.0839 947.8644,-322.688 950.1745,-316.0801"/>
</g>
<!-- OrderedAddCommGroup -->
<g id="node47" class="node">
<title>OrderedAddCommGroup</title>
<ellipse fill="none" stroke="#000000" cx="1288.709" cy="-306" rx="110.0218" ry="18"/>
<text text-anchor="middle" x="1288.709" y="-301.8" font-family="Times,serif" font-size="14.00" fill="#000000">OrderedAddCommGroup</text>
</g>
<!-- AddCommGroup&#45;&gt;OrderedAddCommGroup -->
<g id="edge72" class="edge">
<title>AddCommGroup-&gt;OrderedAddCommGroup</title>
<path fill="none" stroke="#000000" d="M1300.6715,-359.8314C1298.9603,-352.131 1296.9255,-342.9743 1295.0238,-334.4166"/>
<polygon fill="#000000" stroke="#000000" points="1298.3868,-333.4159 1292.8008,-324.4133 1291.5535,-334.9344 1298.3868,-333.4159"/>
</g>
<!-- AddCommMonoid&#45;&gt;AddCommGroup -->
<g id="edge25" class="edge">
<title>AddCommMonoid-&gt;AddCommGroup</title>
<path fill="none" stroke="#000000" d="M1321.8171,-577.367C1336.3752,-568.4069 1351.9918,-555.8955 1360.709,-540 1383.8143,-497.8682 1385.4382,-475.8143 1365.709,-432 1360.3019,-419.9921 1350.7587,-409.5756 1340.8034,-401.1814"/>
<polygon fill="#000000" stroke="#000000" points="1342.8268,-398.32 1332.8021,-394.8912 1338.5005,-403.8231 1342.8268,-398.32"/>
</g>
<!-- NonUnitalNonAssocSemiring -->
<g id="node27" class="node">
<title>NonUnitalNonAssocSemiring</title>
<ellipse fill="none" stroke="#000000" cx="933.709" cy="-522" rx="127.3692" ry="18"/>
<text text-anchor="middle" x="933.709" y="-517.8" font-family="Times,serif" font-size="14.00" fill="#000000">NonUnitalNonAssocSemiring</text>
</g>
<!-- AddCommMonoid&#45;&gt;NonUnitalNonAssocSemiring -->
<g id="edge34" class="edge">
<title>AddCommMonoid-&gt;NonUnitalNonAssocSemiring</title>
<path fill="none" stroke="#000000" d="M1226.451,-581.5408C1168.4083,-569.7355 1080.7957,-551.916 1016.5409,-538.8472"/>
<polygon fill="#000000" stroke="#000000" points="1016.934,-535.3555 1006.4371,-536.7922 1015.5388,-542.2151 1016.934,-535.3555"/>
</g>
<!-- AddCommMonoidWithOne -->
<g id="node32" class="node">
<title>AddCommMonoidWithOne</title>
<ellipse fill="none" stroke="#000000" cx="1198.709" cy="-522" rx="119.8738" ry="18"/>
<text text-anchor="middle" x="1198.709" y="-517.8" font-family="Times,serif" font-size="14.00" fill="#000000">AddCommMonoidWithOne</text>
</g>
<!-- AddCommMonoid&#45;&gt;AddCommMonoidWithOne -->
<g id="edge46" class="edge">
<title>AddCommMonoid-&gt;AddCommMonoidWithOne</title>
<path fill="none" stroke="#000000" d="M1266.1646,-576.5708C1254.8547,-567.4213 1240.8206,-556.0679 1228.487,-546.0901"/>
<polygon fill="#000000" stroke="#000000" points="1230.6491,-543.3373 1220.6733,-539.7689 1226.2465,-548.7795 1230.6491,-543.3373"/>
</g>
<!-- CommRing -->
<g id="node38" class="node">
<title>CommRing</title>
<ellipse fill="none" stroke="#000000" cx="689.709" cy="-234" rx="56.2208" ry="18"/>
<text text-anchor="middle" x="689.709" y="-229.8" font-family="Times,serif" font-size="14.00" fill="#000000">CommRing</text>
</g>
<!-- CommMonoid&#45;&gt;CommRing -->
<g id="edge62" class="edge">
<title>CommMonoid-&gt;CommRing</title>
<path fill="none" stroke="#000000" d="M525.776,-360.9158C559.1458,-335.0811 622.5135,-286.0223 659.9368,-257.0494"/>
<polygon fill="#000000" stroke="#000000" points="662.1938,-259.7284 667.9584,-250.8391 657.9086,-254.1934 662.1938,-259.7284"/>
</g>
<!-- LinearOrderedCommRing -->
<g id="node50" class="node">
<title>LinearOrderedCommRing</title>
<ellipse fill="none" stroke="#000000" cx="843.709" cy="-90" rx="112.8829" ry="18"/>
<text text-anchor="middle" x="843.709" y="-85.8" font-family="Times,serif" font-size="14.00" fill="#000000">LinearOrderedCommRing</text>
</g>
<!-- CommMonoid&#45;&gt;LinearOrderedCommRing -->
<g id="edge80" class="edge">
<title>CommMonoid-&gt;LinearOrderedCommRing</title>
<path fill="none" stroke="#000000" d="M548.9678,-364.5268C603.3829,-346.4211 694.8435,-309.683 754.709,-252 794.7752,-213.3944 821.3945,-152.7711 834.4028,-117.6635"/>
<polygon fill="#000000" stroke="#000000" points="837.7663,-118.6528 837.8569,-108.0584 831.1793,-116.284 837.7663,-118.6528"/>
</g>
<!-- Distrib&#45;&gt;NonUnitalNonAssocSemiring -->
<g id="edge35" class="edge">
<title>Distrib-&gt;NonUnitalNonAssocSemiring</title>
<path fill="none" stroke="#000000" d="M881.4805,-577.3008C889.9219,-568.3627 900.4918,-557.1711 909.9106,-547.1983"/>
<polygon fill="#000000" stroke="#000000" points="912.5128,-549.5405 916.8345,-539.8671 907.4236,-544.7341 912.5128,-549.5405"/>
</g>
<!-- MulZeroClass&#45;&gt;NonUnitalNonAssocSemiring -->
<g id="edge36" class="edge">
<title>MulZeroClass-&gt;NonUnitalNonAssocSemiring</title>
<path fill="none" stroke="#000000" d="M752.6334,-580.2029C786.5682,-569.2952 834.3833,-553.9261 872.3577,-541.7201"/>
<polygon fill="#000000" stroke="#000000" points="873.8361,-544.9213 882.2854,-538.529 871.694,-538.2571 873.8361,-544.9213"/>
</g>
<!-- MulZeroClass&#45;&gt;SemigroupWithZero -->
<g id="edge38" class="edge">
<title>MulZeroClass-&gt;SemigroupWithZero</title>
<path fill="none" stroke="#000000" d="M670.2478,-579.4297C640.6973,-568.5188 599.9634,-553.4786 567.5939,-541.5267"/>
<polygon fill="#000000" stroke="#000000" points="568.4317,-538.1052 557.8384,-537.9247 566.007,-544.6718 568.4317,-538.1052"/>
</g>
<!-- MulZeroClass&#45;&gt;MulZeroOneClass -->
<g id="edge48" class="edge">
<title>MulZeroClass-&gt;MulZeroOneClass</title>
<path fill="none" stroke="#000000" d="M708.6996,-575.8314C708.2718,-568.131 707.7631,-558.9743 707.2877,-550.4166"/>
<polygon fill="#000000" stroke="#000000" points="710.7813,-550.2037 706.7319,-540.4133 703.7921,-550.592 710.7813,-550.2037"/>
</g>
<!-- NonUnitalSemiring -->
<g id="node29" class="node">
<title>NonUnitalSemiring</title>
<ellipse fill="none" stroke="#000000" cx="741.709" cy="-450" rx="87.4176" ry="18"/>
<text text-anchor="middle" x="741.709" y="-445.8" font-family="Times,serif" font-size="14.00" fill="#000000">NonUnitalSemiring</text>
</g>
<!-- NonUnitalNonAssocSemiring&#45;&gt;NonUnitalSemiring -->
<g id="edge39" class="edge">
<title>NonUnitalNonAssocSemiring-&gt;NonUnitalSemiring</title>
<path fill="none" stroke="#000000" d="M888.6935,-505.1192C860.0893,-494.3926 822.9778,-480.4758 793.2022,-469.31"/>
<polygon fill="#000000" stroke="#000000" points="794.4049,-466.023 783.8127,-465.7889 791.947,-472.5773 794.4049,-466.023"/>
</g>
<!-- NonAssocSemiring -->
<g id="node34" class="node">
<title>NonAssocSemiring</title>
<ellipse fill="none" stroke="#000000" cx="933.709" cy="-450" rx="86.8378" ry="18"/>
<text text-anchor="middle" x="933.709" y="-445.8" font-family="Times,serif" font-size="14.00" fill="#000000">NonAssocSemiring</text>
</g>
<!-- NonUnitalNonAssocSemiring&#45;&gt;NonAssocSemiring -->
<g id="edge49" class="edge">
<title>NonUnitalNonAssocSemiring-&gt;NonAssocSemiring</title>
<path fill="none" stroke="#000000" d="M933.709,-503.8314C933.709,-496.131 933.709,-486.9743 933.709,-478.4166"/>
<polygon fill="#000000" stroke="#000000" points="937.2091,-478.4132 933.709,-468.4133 930.2091,-478.4133 937.2091,-478.4132"/>
</g>
<!-- SemigroupWithZero&#45;&gt;NonUnitalSemiring -->
<g id="edge40" class="edge">
<title>SemigroupWithZero-&gt;NonUnitalSemiring</title>
<path fill="none" stroke="#000000" d="M563.1277,-506.6425C598.5082,-495.4205 646.632,-480.1566 684.0086,-468.3014"/>
<polygon fill="#000000" stroke="#000000" points="685.2807,-471.5699 693.7545,-465.2102 683.1643,-464.8975 685.2807,-471.5699"/>
</g>
<!-- SemigroupWithZero&#45;&gt;MonoidWithZero -->
<g id="edge54" class="edge">
<title>SemigroupWithZero-&gt;MonoidWithZero</title>
<path fill="none" stroke="#000000" d="M523.0363,-503.8314C526.7381,-495.7547 531.1741,-486.0761 535.2575,-477.1668"/>
<polygon fill="#000000" stroke="#000000" points="538.5138,-478.4624 539.4987,-467.9134 532.1503,-475.5458 538.5138,-478.4624"/>
</g>
<!-- Semiring -->
<g id="node36" class="node">
<title>Semiring</title>
<ellipse fill="none" stroke="#000000" cx="911.709" cy="-378" rx="46.3855" ry="18"/>
<text text-anchor="middle" x="911.709" y="-373.8" font-family="Times,serif" font-size="14.00" fill="#000000">Semiring</text>
</g>
<!-- NonUnitalSemiring&#45;&gt;Semiring -->
<g id="edge55" class="edge">
<title>NonUnitalSemiring-&gt;Semiring</title>
<path fill="none" stroke="#000000" d="M780.2846,-433.6621C807.275,-422.2309 843.2739,-406.9843 870.7705,-395.3387"/>
<polygon fill="#000000" stroke="#000000" points="872.2699,-398.5047 880.113,-391.3818 869.5399,-392.0589 872.2699,-398.5047"/>
</g>
<!-- AddMonoidWithOne&#45;&gt;AddGroupWithOne -->
<g id="edge42" class="edge">
<title>AddMonoidWithOne-&gt;AddGroupWithOne</title>
<path fill="none" stroke="#000000" d="M1157.3052,-581.0751C1225.2429,-567.3764 1322.2895,-546.7996 1327.709,-540 1337.6814,-527.488 1336.5168,-517.3575 1327.709,-504 1305.3494,-470.0909 1278.992,-488.1217 1243.709,-468 1209.7835,-448.6525 1174.0908,-421.6975 1149.946,-402.3386"/>
<polygon fill="#000000" stroke="#000000" points="1151.8839,-399.4043 1141.9091,-395.8329 1147.4796,-404.8451 1151.8839,-399.4043"/>
</g>
<!-- AddMonoidWithOne&#45;&gt;AddCommMonoidWithOne -->
<g id="edge45" class="edge">
<title>AddMonoidWithOne-&gt;AddCommMonoidWithOne</title>
<path fill="none" stroke="#000000" d="M1117.6107,-576.5708C1131.4669,-567.247 1148.7243,-555.6345 1163.7535,-545.5214"/>
<polygon fill="#000000" stroke="#000000" points="1165.9598,-548.2555 1172.3024,-539.7689 1162.0519,-542.4479 1165.9598,-548.2555"/>
</g>
<!-- AddGroupWithOne&#45;&gt;Ring -->
<g id="edge60" class="edge">
<title>AddGroupWithOne-&gt;Ring</title>
<path fill="none" stroke="#000000" d="M1075.6022,-362.5503C1044.4218,-351.8304 1002.0036,-337.1673 964.709,-324 959.8848,-322.2968 954.8044,-320.4868 949.8054,-318.6963"/>
<polygon fill="#000000" stroke="#000000" points="950.9751,-315.3976 940.3807,-315.3103 948.6083,-321.9854 950.9751,-315.3976"/>
</g>
<!-- AddCommMonoidWithOne&#45;&gt;NonAssocSemiring -->
<g id="edge51" class="edge">
<title>AddCommMonoidWithOne-&gt;NonAssocSemiring</title>
<path fill="none" stroke="#000000" d="M1140.5536,-506.1993C1097.9185,-494.6154 1040.0992,-478.906 996.4297,-467.0411"/>
<polygon fill="#000000" stroke="#000000" points="997.3449,-463.6629 986.777,-464.4185 995.5095,-470.418 997.3449,-463.6629"/>
</g>
<!-- MulZeroOneClass&#45;&gt;NonAssocSemiring -->
<g id="edge50" class="edge">
<title>MulZeroOneClass-&gt;NonAssocSemiring</title>
<path fill="none" stroke="#000000" d="M752.6743,-507.1689C788.4543,-495.8699 837.8985,-480.256 876.0741,-468.2005"/>
<polygon fill="#000000" stroke="#000000" points="877.5388,-471.4084 886.0206,-465.0595 875.4308,-464.7333 877.5388,-471.4084"/>
</g>
<!-- MulZeroOneClass&#45;&gt;MonoidWithZero -->
<g id="edge53" class="edge">
<title>MulZeroOneClass-&gt;MonoidWithZero</title>
<path fill="none" stroke="#000000" d="M669.8563,-505.6621C646.8471,-495.1769 616.7937,-481.4817 592.2555,-470.2997"/>
<polygon fill="#000000" stroke="#000000" points="593.6984,-467.111 583.1473,-466.1491 590.7956,-473.4808 593.6984,-467.111"/>
</g>
<!-- NonAssocSemiring&#45;&gt;Semiring -->
<g id="edge56" class="edge">
<title>NonAssocSemiring-&gt;Semiring</title>
<path fill="none" stroke="#000000" d="M928.1574,-431.8314C925.7421,-423.9266 922.8579,-414.4872 920.184,-405.7365"/>
<polygon fill="#000000" stroke="#000000" points="923.452,-404.4541 917.1825,-395.9134 916.7575,-406.4997 923.452,-404.4541"/>
</g>
<!-- MonoidWithZero&#45;&gt;Semiring -->
<g id="edge57" class="edge">
<title>MonoidWithZero-&gt;Semiring</title>
<path fill="none" stroke="#000000" d="M609.3888,-438.6281C621.4318,-436.4199 633.9646,-434.1303 645.709,-432 735.0067,-415.8025 758.2152,-416.132 846.709,-396 852.4874,-394.6854 858.5215,-393.1871 864.4843,-391.6291"/>
<polygon fill="#000000" stroke="#000000" points="865.6415,-394.9426 874.3943,-388.9727 863.829,-388.1813 865.6415,-394.9426"/>
</g>
<!-- Semiring&#45;&gt;Ring -->
<g id="edge58" class="edge">
<title>Semiring-&gt;Ring</title>
<path fill="none" stroke="#000000" d="M912.466,-359.8314C912.7868,-352.131 913.1684,-342.9743 913.5249,-334.4166"/>
<polygon fill="#000000" stroke="#000000" points="917.0223,-334.5503 913.9418,-324.4133 910.0284,-334.2589 917.0223,-334.5503"/>
</g>
<!-- Ring&#45;&gt;CommRing -->
<g id="edge61" class="edge">
<title>Ring-&gt;CommRing</title>
<path fill="none" stroke="#000000" d="M888.015,-297.4579C851.4676,-285.7628 785.1746,-264.549 739.3592,-249.8881"/>
<polygon fill="#000000" stroke="#000000" points="740.2156,-246.4873 729.6246,-246.773 738.0821,-253.1543 740.2156,-246.4873"/>
</g>
<!-- Ring&#45;&gt;DivisionRing -->
<g id="edge63" class="edge">
<title>Ring-&gt;DivisionRing</title>
<path fill="none" stroke="#000000" d="M903.1123,-289.3008C897.0879,-280.6256 889.5892,-269.8275 882.821,-260.0813"/>
<polygon fill="#000000" stroke="#000000" points="885.6955,-258.0844 877.1167,-251.8671 879.9459,-262.0772 885.6955,-258.0844"/>
</g>
<!-- StrictOrderedRing -->
<g id="node48" class="node">
<title>StrictOrderedRing</title>
<ellipse fill="none" stroke="#000000" cx="1027.709" cy="-234" rx="82.2391" ry="18"/>
<text text-anchor="middle" x="1027.709" y="-229.8" font-family="Times,serif" font-size="14.00" fill="#000000">StrictOrderedRing</text>
</g>
<!-- Ring&#45;&gt;StrictOrderedRing -->
<g id="edge74" class="edge">
<title>Ring-&gt;StrictOrderedRing</title>
<path fill="none" stroke="#000000" d="M935.4349,-292.7941C951.2761,-282.7006 973.491,-268.546 992.1541,-256.6545"/>
<polygon fill="#000000" stroke="#000000" points="994.1617,-259.5254 1000.7145,-251.2 990.4001,-253.6219 994.1617,-259.5254"/>
</g>
<!-- Field -->
<g id="node41" class="node">
<title>Field</title>
<ellipse fill="none" stroke="#000000" cx="702.709" cy="-162" rx="30.7751" ry="18"/>
<text text-anchor="middle" x="702.709" y="-157.8" font-family="Times,serif" font-size="14.00" fill="#000000">Field</text>
</g>
<!-- CommRing&#45;&gt;Field -->
<g id="edge66" class="edge">
<title>CommRing-&gt;Field</title>
<path fill="none" stroke="#000000" d="M692.9894,-215.8314C694.4012,-208.0125 696.084,-198.6923 697.6494,-190.0221"/>
<polygon fill="#000000" stroke="#000000" points="701.142,-190.3762 699.4746,-179.9134 694.2534,-189.1324 701.142,-190.3762"/>
</g>
<!-- DivisionRing&#45;&gt;Field -->
<g id="edge67" class="edge">
<title>DivisionRing-&gt;Field</title>
<path fill="none" stroke="#000000" d="M830.3529,-218.7307C802.7696,-206.4714 764.2391,-189.3467 736.7417,-177.1257"/>
<polygon fill="#000000" stroke="#000000" points="738.0713,-173.8865 727.5117,-173.0234 735.2283,-180.2832 738.0713,-173.8865"/>
</g>
<!-- Nontrivial -->
<g id="node40" class="node">
<title>Nontrivial</title>
<ellipse fill="none" stroke="#000000" cx="1024.709" cy="-306" rx="50.9599" ry="18"/>
<text text-anchor="middle" x="1024.709" y="-301.8" font-family="Times,serif" font-size="14.00" fill="#000000">Nontrivial</text>
</g>
<!-- Nontrivial&#45;&gt;DivisionRing -->
<g id="edge65" class="edge">
<title>Nontrivial-&gt;DivisionRing</title>
<path fill="none" stroke="#000000" d="M993.0981,-291.7751C968.7395,-280.8138 934.7938,-265.5382 907.9248,-253.4471"/>
<polygon fill="#000000" stroke="#000000" points="909.2989,-250.2274 898.7433,-249.3155 906.4263,-256.6109 909.2989,-250.2274"/>
</g>
<!-- Nontrivial&#45;&gt;StrictOrderedRing -->
<g id="edge76" class="edge">
<title>Nontrivial-&gt;StrictOrderedRing</title>
<path fill="none" stroke="#000000" d="M1025.466,-287.8314C1025.7868,-280.131 1026.1684,-270.9743 1026.5249,-262.4166"/>
<polygon fill="#000000" stroke="#000000" points="1030.0223,-262.5503 1026.9418,-252.4133 1023.0284,-262.2589 1030.0223,-262.5503"/>
</g>
<!-- LinearOrderedField -->
<g id="node51" class="node">
<title>LinearOrderedField</title>
<ellipse fill="none" stroke="#000000" cx="772.709" cy="-18" rx="87.9374" ry="18"/>
<text text-anchor="middle" x="772.709" y="-13.8" font-family="Times,serif" font-size="14.00" fill="#000000">LinearOrderedField</text>
</g>
<!-- Field&#45;&gt;LinearOrderedField -->
<g id="edge82" class="edge">
<title>Field-&gt;LinearOrderedField</title>
<path fill="none" stroke="#000000" d="M703.6581,-143.7777C705.2861,-124.8708 709.7065,-94.9176 721.709,-72 727.3079,-61.3093 735.629,-51.2184 743.9336,-42.7174"/>
<polygon fill="#000000" stroke="#000000" points="746.4366,-45.1654 751.1586,-35.681 741.5527,-40.1506 746.4366,-45.1654"/>
</g>
<!-- LE -->
<g id="node42" class="node">
<title>LE</title>
<ellipse fill="none" stroke="#000000" cx="1675.709" cy="-522" rx="27" ry="18"/>
<text text-anchor="middle" x="1675.709" y="-517.8" font-family="Times,serif" font-size="14.00" fill="#000000">LE</text>
</g>
<!-- Preorder -->
<g id="node43" class="node">
<title>Preorder</title>
<ellipse fill="none" stroke="#000000" cx="1603.709" cy="-450" rx="44.0602" ry="18"/>
<text text-anchor="middle" x="1603.709" y="-445.8" font-family="Times,serif" font-size="14.00" fill="#000000">Preorder</text>
</g>
<!-- LE&#45;&gt;Preorder -->
<g id="edge68" class="edge">
<title>LE-&gt;Preorder</title>
<path fill="none" stroke="#000000" d="M1660.4396,-506.7307C1650.9144,-497.2055 1638.4521,-484.7431 1627.6347,-473.9257"/>
<polygon fill="#000000" stroke="#000000" points="1630.0109,-471.3521 1620.4649,-466.7559 1625.0611,-476.3019 1630.0109,-471.3521"/>
</g>
<!-- PartialOrder -->
<g id="node45" class="node">
<title>PartialOrder</title>
<ellipse fill="none" stroke="#000000" cx="1475.709" cy="-378" rx="58.5213" ry="18"/>
<text text-anchor="middle" x="1475.709" y="-373.8" font-family="Times,serif" font-size="14.00" fill="#000000">PartialOrder</text>
</g>
<!-- Preorder&#45;&gt;PartialOrder -->
<g id="edge70" class="edge">
<title>Preorder-&gt;PartialOrder</title>
<path fill="none" stroke="#000000" d="M1577.4974,-435.256C1558.8933,-424.7912 1533.6521,-410.593 1512.96,-398.9537"/>
<polygon fill="#000000" stroke="#000000" points="1514.5406,-395.8271 1504.1089,-393.9749 1511.1087,-401.9281 1514.5406,-395.8271"/>
</g>
<!-- LT -->
<g id="node44" class="node">
<title>LT</title>
<ellipse fill="none" stroke="#000000" cx="1603.709" cy="-522" rx="27" ry="18"/>
<text text-anchor="middle" x="1603.709" y="-517.8" font-family="Times,serif" font-size="14.00" fill="#000000">LT</text>
</g>
<!-- LT&#45;&gt;Preorder -->
<g id="edge69" class="edge">
<title>LT-&gt;Preorder</title>
<path fill="none" stroke="#000000" d="M1603.709,-503.8314C1603.709,-496.131 1603.709,-486.9743 1603.709,-478.4166"/>
<polygon fill="#000000" stroke="#000000" points="1607.2091,-478.4132 1603.709,-468.4133 1600.2091,-478.4133 1607.2091,-478.4132"/>
</g>
<!-- LinearOrder -->
<g id="node46" class="node">
<title>LinearOrder</title>
<ellipse fill="none" stroke="#000000" cx="1475.709" cy="-306" rx="58.5059" ry="18"/>
<text text-anchor="middle" x="1475.709" y="-301.8" font-family="Times,serif" font-size="14.00" fill="#000000">LinearOrder</text>
</g>
<!-- PartialOrder&#45;&gt;LinearOrder -->
<g id="edge71" class="edge">
<title>PartialOrder-&gt;LinearOrder</title>
<path fill="none" stroke="#000000" d="M1475.709,-359.8314C1475.709,-352.131 1475.709,-342.9743 1475.709,-334.4166"/>
<polygon fill="#000000" stroke="#000000" points="1479.2091,-334.4132 1475.709,-324.4133 1472.2091,-334.4133 1479.2091,-334.4132"/>
</g>
<!-- PartialOrder&#45;&gt;OrderedAddCommGroup -->
<g id="edge73" class="edge">
<title>PartialOrder-&gt;OrderedAddCommGroup</title>
<path fill="none" stroke="#000000" d="M1438.7638,-363.7751C1410.8864,-353.0416 1372.2649,-338.1713 1341.1859,-326.205"/>
<polygon fill="#000000" stroke="#000000" points="1342.3929,-322.9193 1331.8031,-322.5924 1339.8777,-329.4519 1342.3929,-322.9193"/>
</g>
<!-- LinearOrderedRing -->
<g id="node49" class="node">
<title>LinearOrderedRing</title>
<ellipse fill="none" stroke="#000000" cx="1027.709" cy="-162" rx="86.7972" ry="18"/>
<text text-anchor="middle" x="1027.709" y="-157.8" font-family="Times,serif" font-size="14.00" fill="#000000">LinearOrderedRing</text>
</g>
<!-- LinearOrder&#45;&gt;LinearOrderedRing -->
<g id="edge78" class="edge">
<title>LinearOrder-&gt;LinearOrderedRing</title>
<path fill="none" stroke="#000000" d="M1473.6345,-287.9131C1470.2151,-267.0543 1461.339,-233.4076 1438.709,-216 1413.8608,-196.8861 1232.4389,-178.7753 1119.0918,-169.1568"/>
<polygon fill="#000000" stroke="#000000" points="1119.2795,-165.6603 1109.0212,-168.3093 1118.6924,-172.6356 1119.2795,-165.6603"/>
</g>
<!-- LinearOrderedAddCommGroup -->
<g id="node52" class="node">
<title>LinearOrderedAddCommGroup</title>
<ellipse fill="none" stroke="#000000" cx="1294.709" cy="-234" rx="135.4209" ry="18"/>
<text text-anchor="middle" x="1294.709" y="-229.8" font-family="Times,serif" font-size="14.00" fill="#000000">LinearOrderedAddCommGroup</text>
</g>
<!-- LinearOrder&#45;&gt;LinearOrderedAddCommGroup -->
<g id="edge84" class="edge">
<title>LinearOrder-&gt;LinearOrderedAddCommGroup</title>
<path fill="none" stroke="#000000" d="M1439.5159,-291.6028C1413.0783,-281.0862 1376.8289,-266.6665 1347.2127,-254.8855"/>
<polygon fill="#000000" stroke="#000000" points="1348.4365,-251.6056 1337.851,-251.1615 1345.8491,-258.1099 1348.4365,-251.6056"/>
</g>
<!-- OrderedAddCommGroup&#45;&gt;StrictOrderedRing -->
<g id="edge75" class="edge">
<title>OrderedAddCommGroup-&gt;StrictOrderedRing</title>
<path fill="none" stroke="#000000" d="M1232.3972,-290.4657C1190.1328,-278.8066 1132.3225,-262.8589 1088.9171,-250.885"/>
<polygon fill="#000000" stroke="#000000" points="1089.621,-247.4485 1079.0503,-248.1631 1087.7594,-254.1965 1089.621,-247.4485"/>
</g>
<!-- OrderedAddCommGroup&#45;&gt;LinearOrderedAddCommGroup -->
<g id="edge83" class="edge">
<title>OrderedAddCommGroup-&gt;LinearOrderedAddCommGroup</title>
<path fill="none" stroke="#000000" d="M1290.223,-287.8314C1290.8647,-280.131 1291.6278,-270.9743 1292.3409,-262.4166"/>
<polygon fill="#000000" stroke="#000000" points="1295.8319,-262.6694 1293.1745,-252.4133 1288.8561,-262.088 1295.8319,-262.6694"/>
</g>
<!-- StrictOrderedRing&#45;&gt;LinearOrderedRing -->
<g id="edge77" class="edge">
<title>StrictOrderedRing-&gt;LinearOrderedRing</title>
<path fill="none" stroke="#000000" d="M1027.709,-215.8314C1027.709,-208.131 1027.709,-198.9743 1027.709,-190.4166"/>
<polygon fill="#000000" stroke="#000000" points="1031.2091,-190.4132 1027.709,-180.4133 1024.2091,-190.4133 1031.2091,-190.4132"/>
</g>
<!-- LinearOrderedRing&#45;&gt;LinearOrderedCommRing -->
<g id="edge79" class="edge">
<title>LinearOrderedRing-&gt;LinearOrderedCommRing</title>
<path fill="none" stroke="#000000" d="M986.8734,-146.0209C960.049,-135.5244 924.7158,-121.6983 895.8632,-110.4082"/>
<polygon fill="#000000" stroke="#000000" points="896.9364,-107.0698 886.3486,-106.6851 894.3856,-113.5885 896.9364,-107.0698"/>
</g>
<!-- LinearOrderedCommRing&#45;&gt;LinearOrderedField -->
<g id="edge81" class="edge">
<title>LinearOrderedCommRing-&gt;LinearOrderedField</title>
<path fill="none" stroke="#000000" d="M826.1584,-72.2022C817.5393,-63.4617 807.0045,-52.7786 797.5732,-43.2144"/>
<polygon fill="#000000" stroke="#000000" points="799.8173,-40.5054 790.3037,-35.8425 794.8331,-45.4204 799.8173,-40.5054"/>
</g>
</g>
</svg>