<?xml version="1.0" encoding="UTF-8" standalone="no"?><!DOCTYPE svg PUBLIC "-//W3C//DTD SVG 1.1//EN" "http://www.w3.org/Graphics/SVG/1.1/DTD/svg11.dtd"><!-- Generated by graphviz version 2.40.1 (20161225.0304)
 --><!-- Title: G Pages: 1 --><svg xmlns="http://www.w3.org/2000/svg" xmlns:xlink="http://www.w3.org/1999/xlink" width="844pt" height="1268pt" viewBox="0.00 0.00 844.36 1268.00">
<g id="graph0" class="graph" transform="scale(1 1) rotate(0) translate(4 1264)">
<title>G</title>
<polygon fill="#ffffff" stroke="transparent" points="-4,4 -4,-1264 840.3625,-1264 840.3625,4 -4,4"/>
<!-- industepFarkasBartl -->
<g id="node1" class="node">
<title>industepFarkasBartl</title>
<ellipse fill="none" stroke="#c0c0c0" cx="312.411" cy="-1242" rx="88.6198" ry="18"/>
<text text-anchor="middle" x="312.411" y="-1237.8" font-family="Times,serif" font-size="14.00" fill="#c0c0c0">industepFarkasBartl</text>
</g>
<!-- finFarkasBartl -->
<g id="node2" class="node">
<title>finFarkasBartl</title>
<ellipse fill="none" stroke="#000000" cx="312.411" cy="-1170" rx="66.6267" ry="18"/>
<text text-anchor="middle" x="312.411" y="-1165.8" font-family="Times,serif" font-size="14.00" fill="#000000">finFarkasBartl</text>
</g>
<!-- industepFarkasBartl&#45;&gt;finFarkasBartl -->
<g id="edge1" class="edge">
<title>industepFarkasBartl-&gt;finFarkasBartl</title>
<path fill="none" stroke="#000000" d="M312.411,-1223.8314C312.411,-1216.131 312.411,-1206.9743 312.411,-1198.4166"/>
<polygon fill="#000000" stroke="#000000" points="315.9111,-1198.4132 312.411,-1188.4133 308.9111,-1198.4133 315.9111,-1198.4132"/>
</g>
<!-- fintypeFarkasBartl -->
<g id="node3" class="node">
<title>fintypeFarkasBartl</title>
<ellipse fill="#add8e6" stroke="#000000" cx="312.411" cy="-1098" rx="83.3809" ry="18"/>
<text text-anchor="middle" x="312.411" y="-1093.8" font-family="Times,serif" font-size="14.00" fill="#000000">fintypeFarkasBartl</text>
</g>
<!-- finFarkasBartl&#45;&gt;fintypeFarkasBartl -->
<g id="edge2" class="edge">
<title>finFarkasBartl-&gt;fintypeFarkasBartl</title>
<path fill="none" stroke="#000000" d="M312.411,-1151.8314C312.411,-1144.131 312.411,-1134.9743 312.411,-1126.4166"/>
<polygon fill="#000000" stroke="#000000" points="315.9111,-1126.4132 312.411,-1116.4133 308.9111,-1126.4133 315.9111,-1126.4132"/>
</g>
<!-- almostFarkasBartl -->
<g id="node4" class="node">
<title>almostFarkasBartl</title>
<ellipse fill="none" stroke="#000000" cx="312.411" cy="-1026" rx="81.6731" ry="18"/>
<text text-anchor="middle" x="312.411" y="-1021.8" font-family="Times,serif" font-size="14.00" fill="#000000">almostFarkasBartl</text>
</g>
<!-- fintypeFarkasBartl&#45;&gt;almostFarkasBartl -->
<g id="edge3" class="edge">
<title>fintypeFarkasBartl-&gt;almostFarkasBartl</title>
<path fill="none" stroke="#000000" d="M312.411,-1079.8314C312.411,-1072.131 312.411,-1062.9743 312.411,-1054.4166"/>
<polygon fill="#000000" stroke="#000000" points="315.9111,-1054.4132 312.411,-1044.4133 308.9111,-1054.4133 315.9111,-1054.4132"/>
</g>
<!-- coordinateFarkasBartl -->
<g id="node5" class="node">
<title>coordinateFarkasBartl</title>
<ellipse fill="none" stroke="#000000" cx="312.411" cy="-954" rx="96.6849" ry="18"/>
<text text-anchor="middle" x="312.411" y="-949.8" font-family="Times,serif" font-size="14.00" fill="#000000">coordinateFarkasBartl</text>
</g>
<!-- almostFarkasBartl&#45;&gt;coordinateFarkasBartl -->
<g id="edge4" class="edge">
<title>almostFarkasBartl-&gt;coordinateFarkasBartl</title>
<path fill="none" stroke="#000000" d="M312.411,-1007.8314C312.411,-1000.131 312.411,-990.9743 312.411,-982.4166"/>
<polygon fill="#000000" stroke="#000000" points="315.9111,-982.4132 312.411,-972.4133 308.9111,-982.4133 315.9111,-982.4132"/>
</g>
<!-- equalityFarkas -->
<g id="node6" class="node">
<title>equalityFarkas</title>
<ellipse fill="#ffffe0" stroke="#000000" cx="312.411" cy="-882" rx="67.7741" ry="18"/>
<text text-anchor="middle" x="312.411" y="-877.8" font-family="Times,serif" font-size="14.00" fill="#000000">equalityFarkas</text>
</g>
<!-- coordinateFarkasBartl&#45;&gt;equalityFarkas -->
<g id="edge5" class="edge">
<title>coordinateFarkasBartl-&gt;equalityFarkas</title>
<path fill="none" stroke="#000000" d="M312.411,-935.8314C312.411,-928.131 312.411,-918.9743 312.411,-910.4166"/>
<polygon fill="#000000" stroke="#000000" points="315.9111,-910.4132 312.411,-900.4133 308.9111,-910.4133 315.9111,-910.4132"/>
</g>
<!-- basicLinearAlgebra_lt -->
<g id="node7" class="node">
<title>basicLinearAlgebra_lt</title>
<ellipse fill="none" stroke="#000000" cx="217.411" cy="-810" rx="97.2471" ry="18"/>
<text text-anchor="middle" x="217.411" y="-805.8" font-family="Times,serif" font-size="14.00" fill="#000000">basicLinearAlgebra_lt</text>
</g>
<!-- equalityFarkas&#45;&gt;basicLinearAlgebra_lt -->
<g id="edge6" class="edge">
<title>equalityFarkas-&gt;basicLinearAlgebra_lt</title>
<path fill="none" stroke="#000000" d="M289.8974,-864.937C277.629,-855.6389 262.252,-843.9847 248.8211,-833.8055"/>
<polygon fill="#000000" stroke="#000000" points="250.839,-830.9432 240.7552,-827.6924 246.6108,-836.5221 250.839,-830.9432"/>
</g>
<!-- inequalityFarkas -->
<g id="node9" class="node">
<title>inequalityFarkas</title>
<ellipse fill="#ffffe0" stroke="#000000" cx="410.411" cy="-810" rx="75.2983" ry="18"/>
<text text-anchor="middle" x="410.411" y="-805.8" font-family="Times,serif" font-size="14.00" fill="#000000">inequalityFarkas</text>
</g>
<!-- equalityFarkas&#45;&gt;inequalityFarkas -->
<g id="edge8" class="edge">
<title>equalityFarkas-&gt;inequalityFarkas</title>
<path fill="none" stroke="#000000" d="M335.6357,-864.937C348.4789,-855.5012 364.6247,-843.6389 378.6235,-833.3541"/>
<polygon fill="#000000" stroke="#000000" points="381.0269,-835.9314 387.0135,-827.19 376.8824,-830.2902 381.0269,-835.9314"/>
</g>
<!-- basicLinearAlgebra -->
<g id="node8" class="node">
<title>basicLinearAlgebra</title>
<ellipse fill="none" stroke="#000000" cx="213.411" cy="-738" rx="87.3557" ry="18"/>
<text text-anchor="middle" x="213.411" y="-733.8" font-family="Times,serif" font-size="14.00" fill="#000000">basicLinearAlgebra</text>
</g>
<!-- basicLinearAlgebra_lt&#45;&gt;basicLinearAlgebra -->
<g id="edge7" class="edge">
<title>basicLinearAlgebra_lt-&gt;basicLinearAlgebra</title>
<path fill="none" stroke="#000000" d="M216.4017,-791.8314C215.9739,-784.131 215.4652,-774.9743 214.9897,-766.4166"/>
<polygon fill="#000000" stroke="#000000" points="218.4834,-766.2037 214.434,-756.4133 211.4942,-766.592 218.4834,-766.2037"/>
</g>
<!-- inequalityFarkas_neg -->
<g id="node10" class="node">
<title>inequalityFarkas_neg</title>
<ellipse fill="none" stroke="#000000" cx="412.411" cy="-738" rx="94.3427" ry="18"/>
<text text-anchor="middle" x="412.411" y="-733.8" font-family="Times,serif" font-size="14.00" fill="#000000">inequalityFarkas_neg</text>
</g>
<!-- inequalityFarkas&#45;&gt;inequalityFarkas_neg -->
<g id="edge9" class="edge">
<title>inequalityFarkas-&gt;inequalityFarkas_neg</title>
<path fill="none" stroke="#000000" d="M410.9157,-791.8314C411.1296,-784.131 411.384,-774.9743 411.6217,-766.4166"/>
<polygon fill="#000000" stroke="#000000" points="415.1204,-766.5066 411.8995,-756.4133 408.1231,-766.3122 415.1204,-766.5066"/>
</g>
<!-- extendedFarkas -->
<g id="node11" class="node">
<title>extendedFarkas</title>
<ellipse fill="#add8e6" stroke="#000000" cx="412.411" cy="-666" rx="71.7699" ry="18"/>
<text text-anchor="middle" x="412.411" y="-661.8" font-family="Times,serif" font-size="14.00" fill="#000000">extendedFarkas</text>
</g>
<!-- inequalityFarkas_neg&#45;&gt;extendedFarkas -->
<g id="edge10" class="edge">
<title>inequalityFarkas_neg-&gt;extendedFarkas</title>
<path fill="none" stroke="#000000" d="M412.411,-719.8314C412.411,-712.131 412.411,-702.9743 412.411,-694.4166"/>
<polygon fill="#000000" stroke="#000000" points="415.9111,-694.4132 412.411,-684.4133 408.9111,-694.4133 415.9111,-694.4132"/>
</g>
<!-- ValidELP.weakDuality_of_no_bot -->
<g id="node12" class="node">
<title>ValidELP.weakDuality_of_no_bot</title>
<ellipse fill="none" stroke="#c0c0c0" cx="147.411" cy="-594" rx="145.8746" ry="18"/>
<text text-anchor="middle" x="147.411" y="-589.8" font-family="Times,serif" font-size="14.00" fill="#c0c0c0">ValidELP.weakDuality_of_no_bot</text>
</g>
<!-- extendedFarkas&#45;&gt;ValidELP.weakDuality_of_no_bot -->
<g id="edge11" class="edge">
<title>extendedFarkas-&gt;ValidELP.weakDuality_of_no_bot</title>
<path fill="none" stroke="#000000" d="M363.4971,-652.7102C322.674,-641.6186 263.959,-625.6659 218.0337,-613.1881"/>
<polygon fill="#000000" stroke="#000000" points="218.711,-609.7452 208.1431,-610.5008 216.8756,-616.5003 218.711,-609.7452"/>
</g>
<!-- ValidELP.strongDuality_aux -->
<g id="node14" class="node">
<title>ValidELP.strongDuality_aux</title>
<ellipse fill="none" stroke="#c0c0c0" cx="234.411" cy="-378" rx="123.8988" ry="18"/>
<text text-anchor="middle" x="234.411" y="-373.8" font-family="Times,serif" font-size="14.00" fill="#c0c0c0">ValidELP.strongDuality_aux</text>
</g>
<!-- extendedFarkas&#45;&gt;ValidELP.strongDuality_aux -->
<g id="edge16" class="edge">
<title>extendedFarkas-&gt;ValidELP.strongDuality_aux</title>
<path fill="none" stroke="#000000" d="M416.9888,-647.8244C426.5974,-605.0855 444.034,-496.9305 393.411,-432 382.6383,-418.1826 346.9291,-405.4358 312.0752,-395.8005"/>
<polygon fill="#000000" stroke="#000000" points="312.8547,-392.3858 302.2887,-393.167 311.0357,-399.1453 312.8547,-392.3858"/>
</g>
<!-- ValidELP.unbounded_of_feasible_of_infeasible -->
<g id="node17" class="node">
<title>ValidELP.unbounded_of_feasible_of_infeasible</title>
<ellipse fill="none" stroke="#c0c0c0" cx="638.411" cy="-522" rx="197.903" ry="18"/>
<text text-anchor="middle" x="638.411" y="-517.8" font-family="Times,serif" font-size="14.00" fill="#c0c0c0">ValidELP.unbounded_of_feasible_of_infeasible</text>
</g>
<!-- extendedFarkas&#45;&gt;ValidELP.unbounded_of_feasible_of_infeasible -->
<g id="edge15" class="edge">
<title>extendedFarkas-&gt;ValidELP.unbounded_of_feasible_of_infeasible</title>
<path fill="none" stroke="#000000" d="M438.7784,-649.1995C478.9496,-623.6038 555.6259,-574.7481 601.3714,-545.6004"/>
<polygon fill="#000000" stroke="#000000" points="603.5354,-548.3718 610.0882,-540.0464 599.7738,-542.4683 603.5354,-548.3718"/>
</g>
<!-- ValidELP.weakDuality -->
<g id="node13" class="node">
<title>ValidELP.weakDuality</title>
<ellipse fill="none" stroke="#000000" cx="101.411" cy="-522" rx="101.3221" ry="18"/>
<text text-anchor="middle" x="101.411" y="-517.8" font-family="Times,serif" font-size="14.00" fill="#000000">ValidELP.weakDuality</text>
</g>
<!-- ValidELP.weakDuality_of_no_bot&#45;&gt;ValidELP.weakDuality -->
<g id="edge12" class="edge">
<title>ValidELP.weakDuality_of_no_bot-&gt;ValidELP.weakDuality</title>
<path fill="none" stroke="#000000" d="M135.8033,-575.8314C130.5334,-567.5829 124.1961,-557.6635 118.405,-548.5992"/>
<polygon fill="#000000" stroke="#000000" points="121.1891,-546.456 112.8557,-539.9134 115.2902,-550.2248 121.1891,-546.456"/>
</g>
<!-- ValidELP.strongDuality_of_both_feasible -->
<g id="node15" class="node">
<title>ValidELP.strongDuality_of_both_feasible</title>
<ellipse fill="none" stroke="#c0c0c0" cx="227.411" cy="-306" rx="174.8027" ry="18"/>
<text text-anchor="middle" x="227.411" y="-301.8" font-family="Times,serif" font-size="14.00" fill="#c0c0c0">ValidELP.strongDuality_of_both_feasible</text>
</g>
<!-- ValidELP.weakDuality&#45;&gt;ValidELP.strongDuality_of_both_feasible -->
<g id="edge19" class="edge">
<title>ValidELP.weakDuality-&gt;ValidELP.strongDuality_of_both_feasible</title>
<path fill="none" stroke="#000000" d="M90.0914,-503.7678C84.4714,-493.6415 78.2816,-480.5789 75.411,-468 64.4267,-419.8661 67.5335,-395.9144 101.411,-360 115.2416,-345.3379 133.7113,-334.4669 152.237,-326.4834"/>
<polygon fill="#000000" stroke="#000000" points="153.6595,-329.6834 161.6094,-322.6798 151.0272,-323.1971 153.6595,-329.6834"/>
</g>
<!-- ValidELP.strongDuality_of_prim_feasible -->
<g id="node16" class="node">
<title>ValidELP.strongDuality_of_prim_feasible</title>
<ellipse fill="none" stroke="#c0c0c0" cx="227.411" cy="-234" rx="175.9427" ry="18"/>
<text text-anchor="middle" x="227.411" y="-229.8" font-family="Times,serif" font-size="14.00" fill="#c0c0c0">ValidELP.strongDuality_of_prim_feasible</text>
</g>
<!-- ValidELP.weakDuality&#45;&gt;ValidELP.strongDuality_of_prim_feasible -->
<g id="edge20" class="edge">
<title>ValidELP.weakDuality-&gt;ValidELP.strongDuality_of_prim_feasible</title>
<path fill="none" stroke="#000000" d="M87.7716,-503.8786C57.8231,-461.7177 -7.1345,-355.5114 43.411,-288 54.5609,-273.1076 91.045,-260.9263 128.6177,-251.9273"/>
<polygon fill="#000000" stroke="#000000" points="129.7473,-255.2583 138.6991,-249.5913 128.1672,-248.439 129.7473,-255.2583"/>
</g>
<!-- ValidELP.infeasible_of_unbounded -->
<g id="node18" class="node">
<title>ValidELP.infeasible_of_unbounded</title>
<ellipse fill="none" stroke="#c0c0c0" cx="234.411" cy="-450" rx="150.4502" ry="18"/>
<text text-anchor="middle" x="234.411" y="-445.8" font-family="Times,serif" font-size="14.00" fill="#c0c0c0">ValidELP.infeasible_of_unbounded</text>
</g>
<!-- ValidELP.weakDuality&#45;&gt;ValidELP.infeasible_of_unbounded -->
<g id="edge17" class="edge">
<title>ValidELP.weakDuality-&gt;ValidELP.infeasible_of_unbounded</title>
<path fill="none" stroke="#000000" d="M133.2678,-504.7542C151.1803,-495.0572 173.7455,-482.8415 193.0147,-472.41"/>
<polygon fill="#000000" stroke="#000000" points="194.7624,-475.4439 201.8902,-467.6053 191.4298,-469.2881 194.7624,-475.4439"/>
</g>
<!-- ValidELP.strongDuality_aux&#45;&gt;ValidELP.strongDuality_of_both_feasible -->
<g id="edge13" class="edge">
<title>ValidELP.strongDuality_aux-&gt;ValidELP.strongDuality_of_both_feasible</title>
<path fill="none" stroke="#000000" d="M232.6446,-359.8314C231.896,-352.131 231.0058,-342.9743 230.1738,-334.4166"/>
<polygon fill="#000000" stroke="#000000" points="233.6525,-334.0276 229.2012,-324.4133 226.6854,-334.7051 233.6525,-334.0276"/>
</g>
<!-- ValidELP.strongDuality_of_both_feasible&#45;&gt;ValidELP.strongDuality_of_prim_feasible -->
<g id="edge14" class="edge">
<title>ValidELP.strongDuality_of_both_feasible-&gt;ValidELP.strongDuality_of_prim_feasible</title>
<path fill="none" stroke="#000000" d="M227.411,-287.8314C227.411,-280.131 227.411,-270.9743 227.411,-262.4166"/>
<polygon fill="#000000" stroke="#000000" points="230.9111,-262.4132 227.411,-252.4133 223.9111,-262.4133 230.9111,-262.4132"/>
</g>
<!-- ValidELP.strongDuality_of_dual_feasible -->
<g id="node19" class="node">
<title>ValidELP.strongDuality_of_dual_feasible</title>
<ellipse fill="none" stroke="#c0c0c0" cx="227.411" cy="-162" rx="174.2193" ry="18"/>
<text text-anchor="middle" x="227.411" y="-157.8" font-family="Times,serif" font-size="14.00" fill="#c0c0c0">ValidELP.strongDuality_of_dual_feasible</text>
</g>
<!-- ValidELP.strongDuality_of_prim_feasible&#45;&gt;ValidELP.strongDuality_of_dual_feasible -->
<g id="edge21" class="edge">
<title>ValidELP.strongDuality_of_prim_feasible-&gt;ValidELP.strongDuality_of_dual_feasible</title>
<path fill="none" stroke="#000000" d="M227.411,-215.8314C227.411,-208.131 227.411,-198.9743 227.411,-190.4166"/>
<polygon fill="#000000" stroke="#000000" points="230.9111,-190.4132 227.411,-180.4133 223.9111,-190.4133 230.9111,-190.4132"/>
</g>
<!-- ValidELP.strongDuality -->
<g id="node20" class="node">
<title>ValidELP.strongDuality</title>
<ellipse fill="#add8e6" stroke="#000000" cx="126.411" cy="-90" rx="105.3548" ry="18"/>
<text text-anchor="middle" x="126.411" y="-85.8" font-family="Times,serif" font-size="14.00" fill="#000000">ValidELP.strongDuality</text>
</g>
<!-- ValidELP.strongDuality_of_prim_feasible&#45;&gt;ValidELP.strongDuality -->
<g id="edge23" class="edge">
<title>ValidELP.strongDuality_of_prim_feasible-&gt;ValidELP.strongDuality</title>
<path fill="none" stroke="#000000" d="M139.4265,-218.4057C98.638,-209.2068 56.5094,-196.1841 44.411,-180 34.8312,-167.1849 36.8215,-158.0854 44.411,-144 51.5718,-130.7103 63.5918,-120.153 76.252,-112.028"/>
<polygon fill="#000000" stroke="#000000" points="78.2596,-114.9064 85.0671,-106.788 74.6827,-108.8892 78.2596,-114.9064"/>
</g>
<!-- ValidELP.optimum_neq_none -->
<g id="node22" class="node">
<title>ValidELP.optimum_neq_none</title>
<ellipse fill="none" stroke="#000000" cx="549.411" cy="-162" rx="129.1433" ry="18"/>
<text text-anchor="middle" x="549.411" y="-157.8" font-family="Times,serif" font-size="14.00" fill="#000000">ValidELP.optimum_neq_none</text>
</g>
<!-- ValidELP.strongDuality_of_prim_feasible&#45;&gt;ValidELP.optimum_neq_none -->
<g id="edge26" class="edge">
<title>ValidELP.strongDuality_of_prim_feasible-&gt;ValidELP.optimum_neq_none</title>
<path fill="none" stroke="#000000" d="M300.8807,-217.572C351.7116,-206.2061 419.2668,-191.1006 471.1141,-179.5074"/>
<polygon fill="#000000" stroke="#000000" points="471.9389,-182.9095 480.9342,-177.3116 470.4114,-176.0782 471.9389,-182.9095"/>
</g>
<!-- ValidELP.unbounded_of_feasible_of_infeasible&#45;&gt;ValidELP.strongDuality_of_prim_feasible -->
<g id="edge25" class="edge">
<title>ValidELP.unbounded_of_feasible_of_infeasible-&gt;ValidELP.strongDuality_of_prim_feasible</title>
<path fill="none" stroke="#000000" d="M626.1279,-504.0217C595.2987,-460.2759 510.0227,-347.5166 411.411,-288 384.9068,-272.0035 353.3802,-260.5033 323.9767,-252.3434"/>
<polygon fill="#000000" stroke="#000000" points="324.6615,-248.9036 314.0969,-249.7026 322.8539,-255.6662 324.6615,-248.9036"/>
</g>
<!-- ValidELP.infeasible_of_unbounded&#45;&gt;ValidELP.strongDuality_aux -->
<g id="edge18" class="edge">
<title>ValidELP.infeasible_of_unbounded-&gt;ValidELP.strongDuality_aux</title>
<path fill="none" stroke="#000000" d="M234.411,-431.8314C234.411,-424.131 234.411,-414.9743 234.411,-406.4166"/>
<polygon fill="#000000" stroke="#000000" points="237.9111,-406.4132 234.411,-396.4133 230.9111,-406.4133 237.9111,-406.4132"/>
</g>
<!-- ValidELP.strongDuality_of_dual_feasible&#45;&gt;ValidELP.strongDuality -->
<g id="edge22" class="edge">
<title>ValidELP.strongDuality_of_dual_feasible-&gt;ValidELP.strongDuality</title>
<path fill="none" stroke="#000000" d="M202.185,-144.0171C189.2175,-134.7729 173.2543,-123.3932 159.3291,-113.4664"/>
<polygon fill="#000000" stroke="#000000" points="161.1415,-110.4601 150.9671,-107.5053 157.0782,-116.1601 161.1415,-110.4601"/>
</g>
<!-- StandardLP.strongDuality -->
<g id="node21" class="node">
<title>StandardLP.strongDuality</title>
<ellipse fill="#ffffe0" stroke="#000000" cx="126.411" cy="-18" rx="112.2993" ry="18"/>
<text text-anchor="middle" x="126.411" y="-13.8" font-family="Times,serif" font-size="14.00" fill="#000000">StandardLP.strongDuality</text>
</g>
<!-- ValidELP.strongDuality&#45;&gt;StandardLP.strongDuality -->
<g id="edge24" class="edge">
<title>ValidELP.strongDuality-&gt;StandardLP.strongDuality</title>
<path fill="none" stroke="#000000" d="M126.411,-71.8314C126.411,-64.131 126.411,-54.9743 126.411,-46.4166"/>
<polygon fill="#000000" stroke="#000000" points="129.9111,-46.4132 126.411,-36.4133 122.9111,-46.4133 129.9111,-46.4132"/>
</g>
<!-- StandardLP.optimum_neq_none -->
<g id="node23" class="node">
<title>StandardLP.optimum_neq_none</title>
<ellipse fill="none" stroke="#000000" cx="549.411" cy="-90" rx="136.088" ry="18"/>
<text text-anchor="middle" x="549.411" y="-85.8" font-family="Times,serif" font-size="14.00" fill="#000000">StandardLP.optimum_neq_none</text>
</g>
<!-- ValidELP.optimum_neq_none&#45;&gt;StandardLP.optimum_neq_none -->
<g id="edge27" class="edge">
<title>ValidELP.optimum_neq_none-&gt;StandardLP.optimum_neq_none</title>
<path fill="none" stroke="#000000" d="M549.411,-143.8314C549.411,-136.131 549.411,-126.9743 549.411,-118.4166"/>
<polygon fill="#000000" stroke="#000000" points="552.9111,-118.4132 549.411,-108.4133 545.9111,-118.4133 552.9111,-118.4132"/>
</g>
</g>
</svg>