<?xml version="1.0" encoding="UTF-8" standalone="no"?><!DOCTYPE svg PUBLIC "-//W3C//DTD SVG 1.1//EN" "http://www.w3.org/Graphics/SVG/1.1/DTD/svg11.dtd"><!-- Generated by graphviz version 2.40.1 (20161225.0304)
 --><!-- Title: G Pages: 1 --><svg xmlns="http://www.w3.org/2000/svg" xmlns:xlink="http://www.w3.org/1999/xlink" width="839pt" height="1124pt" viewBox="0.00 0.00 839.36 1124.00">
<g id="graph0" class="graph" transform="scale(1 1) rotate(0) translate(4 1120)">
<title>G</title>
<polygon fill="#ffffff" stroke="transparent" points="-4,4 -4,-1120 835.363,-1120 835.363,4 -4,4"/>
<!-- finFarkasBartl -->
<g id="node1" class="node">
<title>finFarkasBartl</title>
<ellipse fill="none" stroke="#000000" cx="313.2944" cy="-1098" rx="66.6267" ry="18"/>
<text text-anchor="middle" x="313.2944" y="-1093.8" font-family="Times,serif" font-size="14.00" fill="#000000">finFarkasBartl</text>
</g>
<!-- fintypeFarkasBartl -->
<g id="node2" class="node">
<title>fintypeFarkasBartl</title>
<ellipse fill="#ffff00" stroke="#000000" cx="313.2944" cy="-1026" rx="83.3809" ry="18"/>
<text text-anchor="middle" x="313.2944" y="-1021.8" font-family="Times,serif" font-size="14.00" fill="#000000">fintypeFarkasBartl</text>
</g>
<!-- finFarkasBartl&#45;&gt;fintypeFarkasBartl -->
<g id="edge1" class="edge">
<title>finFarkasBartl-&gt;fintypeFarkasBartl</title>
<path fill="none" stroke="#000000" d="M313.2944,-1079.8314C313.2944,-1072.131 313.2944,-1062.9743 313.2944,-1054.4166"/>
<polygon fill="#000000" stroke="#000000" points="316.7945,-1054.4132 313.2944,-1044.4133 309.7945,-1054.4133 316.7945,-1054.4132"/>
</g>
<!-- scalarFarkas -->
<g id="node3" class="node">
<title>scalarFarkas</title>
<ellipse fill="none" stroke="#000000" cx="313.2944" cy="-954" rx="59.0833" ry="18"/>
<text text-anchor="middle" x="313.2944" y="-949.8" font-family="Times,serif" font-size="14.00" fill="#000000">scalarFarkas</text>
</g>
<!-- fintypeFarkasBartl&#45;&gt;scalarFarkas -->
<g id="edge2" class="edge">
<title>fintypeFarkasBartl-&gt;scalarFarkas</title>
<path fill="none" stroke="#000000" d="M313.2944,-1007.8314C313.2944,-1000.131 313.2944,-990.9743 313.2944,-982.4166"/>
<polygon fill="#000000" stroke="#000000" points="316.7945,-982.4132 313.2944,-972.4133 309.7945,-982.4133 316.7945,-982.4132"/>
</g>
<!-- coordinateFarkas -->
<g id="node4" class="node">
<title>coordinateFarkas</title>
<ellipse fill="none" stroke="#000000" cx="313.2944" cy="-882" rx="77.5665" ry="18"/>
<text text-anchor="middle" x="313.2944" y="-877.8" font-family="Times,serif" font-size="14.00" fill="#000000">coordinateFarkas</text>
</g>
<!-- scalarFarkas&#45;&gt;coordinateFarkas -->
<g id="edge3" class="edge">
<title>scalarFarkas-&gt;coordinateFarkas</title>
<path fill="none" stroke="#000000" d="M313.2944,-935.8314C313.2944,-928.131 313.2944,-918.9743 313.2944,-910.4166"/>
<polygon fill="#000000" stroke="#000000" points="316.7945,-910.4132 313.2944,-900.4133 309.7945,-910.4133 316.7945,-910.4132"/>
</g>
<!-- equalityFarkas -->
<g id="node5" class="node">
<title>equalityFarkas</title>
<ellipse fill="none" stroke="#000000" cx="313.2944" cy="-810" rx="67.7741" ry="18"/>
<text text-anchor="middle" x="313.2944" y="-805.8" font-family="Times,serif" font-size="14.00" fill="#000000">equalityFarkas</text>
</g>
<!-- coordinateFarkas&#45;&gt;equalityFarkas -->
<g id="edge4" class="edge">
<title>coordinateFarkas-&gt;equalityFarkas</title>
<path fill="none" stroke="#000000" d="M313.2944,-863.8314C313.2944,-856.131 313.2944,-846.9743 313.2944,-838.4166"/>
<polygon fill="#000000" stroke="#000000" points="316.7945,-838.4132 313.2944,-828.4133 309.7945,-838.4133 316.7945,-838.4132"/>
</g>
<!-- basicLinearAlgebra_lt -->
<g id="node6" class="node">
<title>basicLinearAlgebra_lt</title>
<ellipse fill="none" stroke="#000000" cx="218.2944" cy="-738" rx="97.2471" ry="18"/>
<text text-anchor="middle" x="218.2944" y="-733.8" font-family="Times,serif" font-size="14.00" fill="#000000">basicLinearAlgebra_lt</text>
</g>
<!-- equalityFarkas&#45;&gt;basicLinearAlgebra_lt -->
<g id="edge5" class="edge">
<title>equalityFarkas-&gt;basicLinearAlgebra_lt</title>
<path fill="none" stroke="#000000" d="M290.7807,-792.937C278.5124,-783.6389 263.1353,-771.9847 249.7044,-761.8055"/>
<polygon fill="#000000" stroke="#000000" points="251.7223,-758.9432 241.6385,-755.6924 247.4942,-764.5221 251.7223,-758.9432"/>
</g>
<!-- inequalityFarkas -->
<g id="node8" class="node">
<title>inequalityFarkas</title>
<ellipse fill="none" stroke="#000000" cx="411.2944" cy="-738" rx="75.2983" ry="18"/>
<text text-anchor="middle" x="411.2944" y="-733.8" font-family="Times,serif" font-size="14.00" fill="#000000">inequalityFarkas</text>
</g>
<!-- equalityFarkas&#45;&gt;inequalityFarkas -->
<g id="edge7" class="edge">
<title>equalityFarkas-&gt;inequalityFarkas</title>
<path fill="none" stroke="#000000" d="M336.519,-792.937C349.3622,-783.5012 365.5081,-771.6389 379.5068,-761.3541"/>
<polygon fill="#000000" stroke="#000000" points="381.9103,-763.9314 387.8968,-755.19 377.7657,-758.2902 381.9103,-763.9314"/>
</g>
<!-- basicLinearAlgebra -->
<g id="node7" class="node">
<title>basicLinearAlgebra</title>
<ellipse fill="none" stroke="#000000" cx="214.2944" cy="-666" rx="87.3557" ry="18"/>
<text text-anchor="middle" x="214.2944" y="-661.8" font-family="Times,serif" font-size="14.00" fill="#000000">basicLinearAlgebra</text>
</g>
<!-- basicLinearAlgebra_lt&#45;&gt;basicLinearAlgebra -->
<g id="edge6" class="edge">
<title>basicLinearAlgebra_lt-&gt;basicLinearAlgebra</title>
<path fill="none" stroke="#000000" d="M217.285,-719.8314C216.8572,-712.131 216.3485,-702.9743 215.8731,-694.4166"/>
<polygon fill="#000000" stroke="#000000" points="219.3667,-694.2037 215.3173,-684.4133 212.3775,-694.592 219.3667,-694.2037"/>
</g>
<!-- inequalityFarkas_neg -->
<g id="node9" class="node">
<title>inequalityFarkas_neg</title>
<ellipse fill="none" stroke="#000000" cx="413.2944" cy="-666" rx="94.3427" ry="18"/>
<text text-anchor="middle" x="413.2944" y="-661.8" font-family="Times,serif" font-size="14.00" fill="#000000">inequalityFarkas_neg</text>
</g>
<!-- inequalityFarkas&#45;&gt;inequalityFarkas_neg -->
<g id="edge8" class="edge">
<title>inequalityFarkas-&gt;inequalityFarkas_neg</title>
<path fill="none" stroke="#000000" d="M411.799,-719.8314C412.0129,-712.131 412.2673,-702.9743 412.505,-694.4166"/>
<polygon fill="#000000" stroke="#000000" points="416.0038,-694.5066 412.7829,-684.4133 409.0065,-694.3122 416.0038,-694.5066"/>
</g>
<!-- extendedFarkas -->
<g id="node10" class="node">
<title>extendedFarkas</title>
<ellipse fill="none" stroke="#000000" cx="413.2944" cy="-594" rx="71.7699" ry="18"/>
<text text-anchor="middle" x="413.2944" y="-589.8" font-family="Times,serif" font-size="14.00" fill="#000000">extendedFarkas</text>
</g>
<!-- inequalityFarkas_neg&#45;&gt;extendedFarkas -->
<g id="edge9" class="edge">
<title>inequalityFarkas_neg-&gt;extendedFarkas</title>
<path fill="none" stroke="#000000" d="M413.2944,-647.8314C413.2944,-640.131 413.2944,-630.9743 413.2944,-622.4166"/>
<polygon fill="#000000" stroke="#000000" points="416.7945,-622.4132 413.2944,-612.4133 409.7945,-622.4133 416.7945,-622.4132"/>
</g>
<!-- ExtendedLP.weakDuality -->
<g id="node11" class="node">
<title>ExtendedLP.weakDuality</title>
<ellipse fill="none" stroke="#000000" cx="133.2944" cy="-522" rx="110.5563" ry="18"/>
<text text-anchor="middle" x="133.2944" y="-517.8" font-family="Times,serif" font-size="14.00" fill="#000000">ExtendedLP.weakDuality</text>
</g>
<!-- extendedFarkas&#45;&gt;ExtendedLP.weakDuality -->
<g id="edge10" class="edge">
<title>extendedFarkas-&gt;ExtendedLP.weakDuality</title>
<path fill="none" stroke="#000000" d="M362.9126,-581.0447C318.0397,-569.5059 251.976,-552.5181 202.2167,-539.7229"/>
<polygon fill="#000000" stroke="#000000" points="203.0499,-536.3233 192.4933,-537.2226 201.3066,-543.1028 203.0499,-536.3233"/>
</g>
<!-- ExtendedLP.strongDuality_aux -->
<g id="node12" class="node">
<title>ExtendedLP.strongDuality_aux</title>
<ellipse fill="none" stroke="#000000" cx="246.2944" cy="-378" rx="133.133" ry="18"/>
<text text-anchor="middle" x="246.2944" y="-373.8" font-family="Times,serif" font-size="14.00" fill="#000000">ExtendedLP.strongDuality_aux</text>
</g>
<!-- extendedFarkas&#45;&gt;ExtendedLP.strongDuality_aux -->
<g id="edge13" class="edge">
<title>extendedFarkas-&gt;ExtendedLP.strongDuality_aux</title>
<path fill="none" stroke="#000000" d="M416.7688,-575.9231C421.9328,-543.3638 427.7448,-474.3222 394.2944,-432 384.1886,-419.214 351.4193,-406.6301 319.277,-396.8309"/>
<polygon fill="#000000" stroke="#000000" points="319.9303,-393.3739 309.3477,-393.8821 317.9374,-400.0843 319.9303,-393.3739"/>
</g>
<!-- ExtendedLP.unbounded_of_feasible_of_infeasible -->
<g id="node15" class="node">
<title>ExtendedLP.unbounded_of_feasible_of_infeasible</title>
<ellipse fill="none" stroke="#000000" cx="624.2944" cy="-378" rx="207.1373" ry="18"/>
<text text-anchor="middle" x="624.2944" y="-373.8" font-family="Times,serif" font-size="14.00" fill="#000000">ExtendedLP.unbounded_of_feasible_of_infeasible</text>
</g>
<!-- extendedFarkas&#45;&gt;ExtendedLP.unbounded_of_feasible_of_infeasible -->
<g id="edge14" class="edge">
<title>extendedFarkas-&gt;ExtendedLP.unbounded_of_feasible_of_infeasible</title>
<path fill="none" stroke="#000000" d="M473.2267,-584.0954C575.1593,-565.8936 775.2651,-523.8159 816.2944,-468 843.4406,-431.0705 798.7711,-408.7743 745.7178,-395.6126"/>
<polygon fill="#000000" stroke="#000000" points="746.2655,-392.1459 735.7294,-393.2599 744.6606,-398.9595 746.2655,-392.1459"/>
</g>
<!-- ExtendedLP.strongDuality_of_both_feasible -->
<g id="node13" class="node">
<title>ExtendedLP.strongDuality_of_both_feasible</title>
<ellipse fill="none" stroke="#000000" cx="219.2944" cy="-306" rx="184.0369" ry="18"/>
<text text-anchor="middle" x="219.2944" y="-301.8" font-family="Times,serif" font-size="14.00" fill="#000000">ExtendedLP.strongDuality_of_both_feasible</text>
</g>
<!-- ExtendedLP.weakDuality&#45;&gt;ExtendedLP.strongDuality_of_both_feasible -->
<g id="edge17" class="edge">
<title>ExtendedLP.weakDuality-&gt;ExtendedLP.strongDuality_of_both_feasible</title>
<path fill="none" stroke="#000000" d="M96.1821,-504.9086C81.5925,-496.1085 66.4138,-483.8511 58.2944,-468 50.9999,-453.7595 53.8072,-447.3579 58.2944,-432 68.944,-395.5506 75.7618,-385.0573 104.2944,-360 119.7482,-346.4285 139.2015,-335.5793 157.6904,-327.2698"/>
<polygon fill="#000000" stroke="#000000" points="159.1582,-330.4485 166.955,-323.2748 156.3864,-324.0206 159.1582,-330.4485"/>
</g>
<!-- ExtendedLP.strongDuality_of_prim_feasible -->
<g id="node14" class="node">
<title>ExtendedLP.strongDuality_of_prim_feasible</title>
<ellipse fill="none" stroke="#000000" cx="219.2944" cy="-234" rx="185.1769" ry="18"/>
<text text-anchor="middle" x="219.2944" y="-229.8" font-family="Times,serif" font-size="14.00" fill="#000000">ExtendedLP.strongDuality_of_prim_feasible</text>
</g>
<!-- ExtendedLP.weakDuality&#45;&gt;ExtendedLP.strongDuality_of_prim_feasible -->
<g id="edge18" class="edge">
<title>ExtendedLP.weakDuality-&gt;ExtendedLP.strongDuality_of_prim_feasible</title>
<path fill="none" stroke="#000000" d="M93.6335,-505.019C77.7372,-496.2385 60.7449,-483.9659 50.2944,-468 6.0933,-400.4719 -22.4841,-352.2996 26.2944,-288 37.9016,-272.6993 75.3881,-260.5531 114.2755,-251.686"/>
<polygon fill="#000000" stroke="#000000" points="115.1658,-255.0738 124.1774,-249.5024 113.6583,-248.2381 115.1658,-255.0738"/>
</g>
<!-- ExtendedLP.infeasible_of_unbounded -->
<g id="node16" class="node">
<title>ExtendedLP.infeasible_of_unbounded</title>
<ellipse fill="none" stroke="#000000" cx="226.2944" cy="-450" rx="159.1843" ry="18"/>
<text text-anchor="middle" x="226.2944" y="-445.8" font-family="Times,serif" font-size="14.00" fill="#000000">ExtendedLP.infeasible_of_unbounded</text>
</g>
<!-- ExtendedLP.weakDuality&#45;&gt;ExtendedLP.infeasible_of_unbounded -->
<g id="edge15" class="edge">
<title>ExtendedLP.weakDuality-&gt;ExtendedLP.infeasible_of_unbounded</title>
<path fill="none" stroke="#000000" d="M156.2831,-504.2022C168.02,-495.1156 182.4689,-483.9294 195.1864,-474.0836"/>
<polygon fill="#000000" stroke="#000000" points="197.4831,-476.7319 203.2477,-467.8425 193.1979,-471.1968 197.4831,-476.7319"/>
</g>
<!-- ExtendedLP.strongDuality_aux&#45;&gt;ExtendedLP.strongDuality_of_both_feasible -->
<g id="edge11" class="edge">
<title>ExtendedLP.strongDuality_aux-&gt;ExtendedLP.strongDuality_of_both_feasible</title>
<path fill="none" stroke="#000000" d="M239.4811,-359.8314C236.53,-351.9617 233.0085,-342.5712 229.7393,-333.8533"/>
<polygon fill="#000000" stroke="#000000" points="232.9878,-332.5476 226.1993,-324.4133 226.4335,-335.0055 232.9878,-332.5476"/>
</g>
<!-- ExtendedLP.strongDuality_of_both_feasible&#45;&gt;ExtendedLP.strongDuality_of_prim_feasible -->
<g id="edge12" class="edge">
<title>ExtendedLP.strongDuality_of_both_feasible-&gt;ExtendedLP.strongDuality_of_prim_feasible</title>
<path fill="none" stroke="#000000" d="M219.2944,-287.8314C219.2944,-280.131 219.2944,-270.9743 219.2944,-262.4166"/>
<polygon fill="#000000" stroke="#000000" points="222.7945,-262.4132 219.2944,-252.4133 215.7945,-262.4133 222.7945,-262.4132"/>
</g>
<!-- ExtendedLP.strongDuality_of_dual_feasible -->
<g id="node17" class="node">
<title>ExtendedLP.strongDuality_of_dual_feasible</title>
<ellipse fill="none" stroke="#000000" cx="219.2944" cy="-162" rx="183.4534" ry="18"/>
<text text-anchor="middle" x="219.2944" y="-157.8" font-family="Times,serif" font-size="14.00" fill="#000000">ExtendedLP.strongDuality_of_dual_feasible</text>
</g>
<!-- ExtendedLP.strongDuality_of_prim_feasible&#45;&gt;ExtendedLP.strongDuality_of_dual_feasible -->
<g id="edge19" class="edge">
<title>ExtendedLP.strongDuality_of_prim_feasible-&gt;ExtendedLP.strongDuality_of_dual_feasible</title>
<path fill="none" stroke="#000000" d="M219.2944,-215.8314C219.2944,-208.131 219.2944,-198.9743 219.2944,-190.4166"/>
<polygon fill="#000000" stroke="#000000" points="222.7945,-190.4132 219.2944,-180.4133 215.7945,-190.4133 222.7945,-190.4132"/>
</g>
<!-- ExtendedLP.strongDuality -->
<g id="node18" class="node">
<title>ExtendedLP.strongDuality</title>
<ellipse fill="#ffff00" stroke="#000000" cx="114.2944" cy="-90" rx="114.0891" ry="18"/>
<text text-anchor="middle" x="114.2944" y="-85.8" font-family="Times,serif" font-size="14.00" fill="#000000">ExtendedLP.strongDuality</text>
</g>
<!-- ExtendedLP.strongDuality_of_prim_feasible&#45;&gt;ExtendedLP.strongDuality -->
<g id="edge21" class="edge">
<title>ExtendedLP.strongDuality_of_prim_feasible-&gt;ExtendedLP.strongDuality</title>
<path fill="none" stroke="#000000" d="M124.928,-218.4935C82.8114,-209.4608 39.8398,-196.5606 27.2944,-180 17.6329,-167.2464 19.5163,-157.9822 27.2944,-144 34.8797,-130.3642 47.4909,-119.7308 60.79,-111.644"/>
<polygon fill="#000000" stroke="#000000" points="62.5874,-114.6487 69.5827,-106.6916 59.1521,-108.5496 62.5874,-114.6487"/>
</g>
<!-- ExtendedLP.optimum_neq_none -->
<g id="node20" class="node">
<title>ExtendedLP.optimum_neq_none</title>
<ellipse fill="none" stroke="#000000" cx="559.2944" cy="-162" rx="138.3773" ry="18"/>
<text text-anchor="middle" x="559.2944" y="-157.8" font-family="Times,serif" font-size="14.00" fill="#000000">ExtendedLP.optimum_neq_none</text>
</g>
<!-- ExtendedLP.strongDuality_of_prim_feasible&#45;&gt;ExtendedLP.optimum_neq_none -->
<g id="edge24" class="edge">
<title>ExtendedLP.strongDuality_of_prim_feasible-&gt;ExtendedLP.optimum_neq_none</title>
<path fill="none" stroke="#000000" d="M296.871,-217.572C350.5628,-206.202 421.9263,-191.0897 476.6797,-179.4949"/>
<polygon fill="#000000" stroke="#000000" points="477.6441,-182.8683 486.702,-177.3725 476.1939,-176.0202 477.6441,-182.8683"/>
</g>
<!-- ExtendedLP.unbounded_of_feasible_of_infeasible&#45;&gt;ExtendedLP.strongDuality_of_prim_feasible -->
<g id="edge23" class="edge">
<title>ExtendedLP.unbounded_of_feasible_of_infeasible-&gt;ExtendedLP.strongDuality_of_prim_feasible</title>
<path fill="none" stroke="#000000" d="M586.5766,-360.2412C544.6271,-340.9034 474.5552,-309.8241 412.2944,-288 374.9279,-274.9021 332.6439,-262.7781 297.1984,-253.3505"/>
<polygon fill="#000000" stroke="#000000" points="297.954,-249.9302 287.3921,-250.7644 296.1689,-256.6987 297.954,-249.9302"/>
</g>
<!-- ExtendedLP.infeasible_of_unbounded&#45;&gt;ExtendedLP.strongDuality_aux -->
<g id="edge16" class="edge">
<title>ExtendedLP.infeasible_of_unbounded-&gt;ExtendedLP.strongDuality_aux</title>
<path fill="none" stroke="#000000" d="M231.3412,-431.8314C233.5037,-424.0463 236.0797,-414.7729 238.4792,-406.1347"/>
<polygon fill="#000000" stroke="#000000" points="241.8754,-406.9852 241.1796,-396.4133 235.1307,-405.1117 241.8754,-406.9852"/>
</g>
<!-- ExtendedLP.strongDuality_of_dual_feasible&#45;&gt;ExtendedLP.strongDuality -->
<g id="edge20" class="edge">
<title>ExtendedLP.strongDuality_of_dual_feasible-&gt;ExtendedLP.strongDuality</title>
<path fill="none" stroke="#000000" d="M193.0693,-144.0171C179.5626,-134.7553 162.9297,-123.35 148.4336,-113.4098"/>
<polygon fill="#000000" stroke="#000000" points="150.4119,-110.5225 140.1852,-107.7537 146.4531,-116.2956 150.4119,-110.5225"/>
</g>
<!-- StandardLP.strongDuality -->
<g id="node19" class="node">
<title>StandardLP.strongDuality</title>
<ellipse fill="none" stroke="#000000" cx="114.2944" cy="-18" rx="112.2993" ry="18"/>
<text text-anchor="middle" x="114.2944" y="-13.8" font-family="Times,serif" font-size="14.00" fill="#000000">StandardLP.strongDuality</text>
</g>
<!-- ExtendedLP.strongDuality&#45;&gt;StandardLP.strongDuality -->
<g id="edge22" class="edge">
<title>ExtendedLP.strongDuality-&gt;StandardLP.strongDuality</title>
<path fill="none" stroke="#000000" d="M114.2944,-71.8314C114.2944,-64.131 114.2944,-54.9743 114.2944,-46.4166"/>
<polygon fill="#000000" stroke="#000000" points="117.7945,-46.4132 114.2944,-36.4133 110.7945,-46.4133 117.7945,-46.4132"/>
</g>
<!-- StandardLP.optimum_neq_none -->
<g id="node21" class="node">
<title>StandardLP.optimum_neq_none</title>
<ellipse fill="none" stroke="#000000" cx="559.2944" cy="-90" rx="136.088" ry="18"/>
<text text-anchor="middle" x="559.2944" y="-85.8" font-family="Times,serif" font-size="14.00" fill="#000000">StandardLP.optimum_neq_none</text>
</g>
<!-- ExtendedLP.optimum_neq_none&#45;&gt;StandardLP.optimum_neq_none -->
<g id="edge25" class="edge">
<title>ExtendedLP.optimum_neq_none-&gt;StandardLP.optimum_neq_none</title>
<path fill="none" stroke="#000000" d="M559.2944,-143.8314C559.2944,-136.131 559.2944,-126.9743 559.2944,-118.4166"/>
<polygon fill="#000000" stroke="#000000" points="562.7945,-118.4132 559.2944,-108.4133 555.7945,-118.4133 562.7945,-118.4132"/>
</g>
<!-- ExtendedLP.unbounded_of_feasible_of_neg -->
<g id="node22" class="node">
<title>ExtendedLP.unbounded_of_feasible_of_neg</title>
<ellipse fill="none" stroke="#000000" cx="624.2944" cy="-450" rx="183.4476" ry="18"/>
<text text-anchor="middle" x="624.2944" y="-445.8" font-family="Times,serif" font-size="14.00" fill="#000000">ExtendedLP.unbounded_of_feasible_of_neg</text>
</g>
<!-- ExtendedLP.unbounded_of_feasible_of_neg&#45;&gt;ExtendedLP.strongDuality_aux -->
<g id="edge26" class="edge">
<title>ExtendedLP.unbounded_of_feasible_of_neg-&gt;ExtendedLP.strongDuality_aux</title>
<path fill="none" stroke="#000000" d="M539.9343,-433.9314C478.6154,-422.2516 395.8384,-406.4846 333.8017,-394.6681"/>
<polygon fill="#000000" stroke="#000000" points="334.1194,-391.1657 323.6411,-392.7327 332.8096,-398.0421 334.1194,-391.1657"/>
</g>
<!-- ExtendedLP.unbounded_of_feasible_of_neg&#45;&gt;ExtendedLP.unbounded_of_feasible_of_infeasible -->
<g id="edge27" class="edge">
<title>ExtendedLP.unbounded_of_feasible_of_neg-&gt;ExtendedLP.unbounded_of_feasible_of_infeasible</title>
<path fill="none" stroke="#000000" d="M624.2944,-431.8314C624.2944,-424.131 624.2944,-414.9743 624.2944,-406.4166"/>
<polygon fill="#000000" stroke="#000000" points="627.7945,-406.4132 624.2944,-396.4133 620.7945,-406.4133 627.7945,-406.4132"/>
</g>
</g>
</svg>